<svg width="38" height="36" viewBox="0 0 38 36" fill="none" xmlns="http://www.w3.org/2000/svg">
<path d="M26.2766 2.98932C28.3229 2.99523 30.2836 3.78462 31.7305 5.18508C33.1775 6.58554 33.993 8.48327 33.9991 10.4638V25.4112C33.993 27.3917 33.1775 29.2895 31.7305 30.6899C30.2836 32.0904 28.3229 32.8798 26.2766 32.8857H10.8333C8.78708 32.8798 6.82638 32.0904 5.37945 30.6899C3.93253 29.2895 3.11695 27.3917 3.11084 25.4112V10.4638C3.11695 8.48327 3.93253 6.58554 5.37945 5.18508C6.82638 3.78462 8.78708 2.99523 10.8333 2.98932H26.2766ZM26.2766 0H10.8333C4.88716 0 0.0223389 4.70859 0.0223389 10.4638V25.4112C0.0223389 31.1664 4.88716 35.875 10.8333 35.875H26.2766C32.2228 35.875 37.0876 31.1664 37.0876 25.4112V10.4638C37.0876 4.70859 32.2228 0 26.2766 0Z" fill="white"/>
<path d="M28.5944 10.4639C28.1362 10.4639 27.6884 10.3324 27.3074 10.086C26.9264 9.83962 26.6295 9.48944 26.4542 9.07973C26.2789 8.67002 26.233 8.21919 26.3224 7.78425C26.4117 7.34931 26.6324 6.94979 26.9564 6.63621C27.2803 6.32264 27.6931 6.10909 28.1425 6.02258C28.5919 5.93606 29.0576 5.98046 29.4809 6.15017C29.9042 6.31988 30.266 6.60726 30.5206 6.97599C30.7751 7.34471 30.911 7.77822 30.911 8.22168C30.9116 8.51631 30.8522 8.80816 30.736 9.08048C30.6198 9.3528 30.4492 9.60023 30.2339 9.80856C30.0187 10.0169 29.7631 10.182 29.4817 10.2945C29.2004 10.4069 28.8988 10.4645 28.5944 10.4639ZM18.5562 11.9581C19.7781 11.9581 20.9725 12.3088 21.9884 12.9658C23.0044 13.6229 23.7962 14.5567 24.2638 15.6493C24.7313 16.7419 24.8537 17.9442 24.6153 19.1041C24.3769 20.264 23.7886 21.3294 22.9246 22.1657C22.0606 23.0019 20.9598 23.5714 19.7614 23.8021C18.5631 24.0328 17.3209 23.9144 16.1921 23.4618C15.0632 23.0093 14.0984 22.2429 13.4196 21.2596C12.7407 20.2762 12.3784 19.1202 12.3784 17.9376C12.3802 16.3522 13.0316 14.8323 14.1898 13.7113C15.348 12.5903 16.9183 11.9598 18.5562 11.9581ZM18.5562 8.96881C16.7235 8.96881 14.932 9.49482 13.4081 10.4803C11.8843 11.4658 10.6966 12.8665 9.99528 14.5054C9.29393 16.1442 9.11043 17.9475 9.46797 19.6873C9.82551 21.427 10.708 23.0251 12.004 24.2794C13.2999 25.5337 14.951 26.3879 16.7485 26.734C18.5459 27.08 20.4091 26.9024 22.1023 26.2236C23.7955 25.5448 25.2427 24.3952 26.2609 22.9203C27.279 21.4454 27.8225 19.7114 27.8225 17.9376C27.8225 15.5589 26.8462 13.2777 25.1085 11.5957C23.3707 9.91373 21.0138 8.96881 18.5562 8.96881Z" fill="white"/>
</svg>
