<svg width="37" height="35" viewBox="0 0 37 35" fill="none" xmlns="http://www.w3.org/2000/svg">
<path d="M33.6703 0H3.49109C1.84204 0 0.401245 1.14844 0.401245 2.72578V32.0008C0.401245 33.5867 1.84204 35 3.49109 35H33.6614C35.3194 35 36.5624 33.5773 36.5624 32.0008V2.72578C36.5721 1.14844 35.3194 0 33.6703 0ZM11.6104 29.1742H6.42999V13.5844H11.6104V29.1742ZM9.19939 11.2141H9.16226C7.50433 11.2141 6.4308 10.0195 6.4308 8.52422C6.4308 7.00156 7.53258 5.83516 9.22764 5.83516C10.9227 5.83516 11.9599 6.99297 11.997 8.52422C11.9962 10.0195 10.9227 11.2141 9.19939 11.2141ZM30.5434 29.1742H25.3629V20.65C25.3629 18.6078 24.609 17.2125 22.7348 17.2125C21.3029 17.2125 20.4554 18.15 20.0784 19.0633C19.9372 19.3914 19.8992 19.8383 19.8992 20.2945V29.1742H14.7188V13.5844H19.8992V15.7539C20.6531 14.7148 21.8308 13.2195 24.5711 13.2195C27.9717 13.2195 30.5442 15.3891 30.5442 20.0664L30.5434 29.1742Z" fill="white"/>
</svg>
