<svg width="40" height="30" viewBox="0 0 40 30" fill="none" xmlns="http://www.w3.org/2000/svg">
<path d="M39.3456 6.62404C39.3456 3.10851 36.7852 0.280461 33.6214 0.280461C29.336 0.0781226 24.9655 0 20.4991 0H19.1068C14.6512 0 10.273 0.0781228 5.98763 0.281242C2.83161 0.281242 0.271208 3.12492 0.271208 6.64044C0.0778239 9.42084 -0.00417082 12.202 0.000470393 14.9832C-0.00726496 17.7644 0.0804024 20.5481 0.263472 23.3345C0.263472 26.8501 2.82387 29.7015 5.9799 29.7015C10.4819 29.9125 15.0999 30.0062 19.7952 29.9984C24.4983 30.014 29.1034 29.9151 33.6106 29.7015C36.7743 29.7015 39.3347 26.8501 39.3347 23.3345C39.5204 20.5455 39.6055 17.7644 39.5977 14.9754C39.6153 12.1942 39.5312 9.41042 39.3456 6.62404ZM16.0126 22.647V7.2959L27.2289 14.9676L16.0126 22.647Z" fill="white"/>
</svg>
