<svg width="604" height="395" viewBox="0 0 604 395" fill="none" xmlns="http://www.w3.org/2000/svg">
<g clip-path="url(#clip0_48_554)">
<path d="M522.63 325.048C522.316 336.773 520.354 348.395 516.801 359.572C516.722 359.832 516.635 360.087 516.55 360.347H494.799C494.822 360.114 494.846 359.855 494.868 359.572C496.319 342.883 488.034 242.517 478.036 225.146C478.912 226.555 524.316 272.018 522.63 325.048Z" fill="#F0F0F0"/>
<path d="M520.997 359.573C520.816 359.832 520.626 360.091 520.433 360.347H504.115C504.239 360.126 504.382 359.867 504.548 359.573C507.244 354.703 515.222 340.142 522.628 325.048C530.584 308.827 537.889 291.991 537.273 285.897C537.464 287.271 542.972 329.167 520.997 359.573Z" fill="#F0F0F0"/>
<path d="M575.738 340.995C575.566 347.423 574.49 353.795 572.542 359.922C572.499 360.065 572.451 360.205 572.405 360.347H560.481C560.493 360.219 560.506 360.077 560.519 359.922C561.314 350.773 556.772 295.75 551.291 286.227C551.771 287 576.663 311.923 575.738 340.995Z" fill="#F0F0F0"/>
<path d="M574.843 359.922C574.744 360.065 574.64 360.207 574.534 360.347H565.588C565.656 360.226 565.735 360.084 565.826 359.922C567.303 357.253 571.677 349.27 575.737 340.995C580.099 332.103 584.103 322.873 583.766 319.532C583.871 320.285 586.89 343.254 574.843 359.922Z" fill="#F0F0F0"/>
<path d="M463.099 340.995C462.927 347.423 461.851 353.795 459.903 359.922C459.86 360.065 459.812 360.205 459.766 360.347H447.842C447.854 360.219 447.867 360.077 447.88 359.922C448.675 350.773 444.133 295.75 438.652 286.227C439.132 287 464.023 311.923 463.099 340.995Z" fill="#F0F0F0"/>
<path d="M462.204 359.922C462.104 360.065 462.001 360.207 461.894 360.347H452.949C453.017 360.226 453.095 360.084 453.186 359.922C454.664 357.253 459.038 349.27 463.098 340.995C467.459 332.103 471.464 322.873 471.127 319.532C471.231 320.285 474.251 343.254 462.204 359.922Z" fill="#F0F0F0"/>
<path d="M247.786 348.598H259.251L264.706 304.327L247.784 304.328L247.786 348.598Z" fill="#FFB7B7"/>
<path d="M244.861 344.851L267.441 344.85H267.442C271.259 344.85 274.918 346.368 277.617 349.069C280.316 351.77 281.832 355.434 281.832 359.254V359.723L244.862 359.724L244.861 344.851Z" fill="#2F2E41"/>
<path d="M185.707 348.598H197.173L202.627 304.327L185.705 304.328L185.707 348.598Z" fill="#FFB7B7"/>
<path d="M182.782 344.851L205.362 344.85H205.363C209.18 344.85 212.84 346.368 215.538 349.069C218.237 351.77 219.753 355.434 219.753 359.254V359.723L182.783 359.724L182.782 344.851Z" fill="#2F2E41"/>
<path d="M181.036 147.953V264.842L183.992 340.302H208.38L216.509 198.26L232.768 256.705L243.115 338.822L272.676 337.343L252.722 147.953H181.036Z" fill="#2F2E41"/>
<path d="M209.386 42.9016C219.182 42.9016 227.123 34.9523 227.123 25.1463C227.123 15.3403 219.182 7.39105 209.386 7.39105C199.591 7.39105 191.65 15.3403 191.65 25.1463C191.65 34.9523 199.591 42.9016 209.386 42.9016Z" fill="#FFB8B8"/>
<path d="M202.016 47.5272L197.294 52.5192L192.86 152.393L245.331 150.913L232.768 63.6166L221.683 52.982L216.058 47.5272H202.016Z" fill="#2F7BEA"/>
<path d="M193.599 58.4374L197.582 51.9663L198.772 65.8354C198.772 65.8354 208.38 96.9071 207.641 124.28C206.902 151.652 211.336 216.015 205.424 216.755C199.512 217.495 174.384 218.974 174.384 213.796C174.384 208.617 172.906 71.014 172.906 71.014L193.599 58.4374Z" fill="#3F3D56"/>
<path d="M220.492 51.9663L230.551 59.917L252.722 68.0548C252.722 68.0548 252.722 162.749 257.156 184.943C261.59 207.138 269.72 209.357 259.373 210.097C249.027 210.837 249.766 207.138 249.766 207.138C249.766 207.138 257.156 170.147 247.549 162.749C237.941 155.351 219.465 112.443 220.943 88.7692C222.422 65.0956 219.014 51.9663 220.492 51.9663Z" fill="#3F3D56"/>
<path d="M192.607 30.7013C192.607 30.7013 194.114 28.052 193.763 19.2018C193.413 10.3516 206.876 15.3571 218.125 14.5129C229.375 13.6686 226.993 29.2886 226.993 29.2886C226.993 29.2886 227.805 28.3601 229.543 20.8214C231.28 13.2828 227.335 5.77019 227.335 5.77019C226.173 -2.15153 219.911 0.387392 219.911 0.387392C222.927 1.56261 222.347 4.0755 222.347 4.0755C219.795 -0.40479 213.533 2.13414 213.533 2.13414C205.181 -3.11227 196.716 3.7966 196.716 3.7966C186.627 6.08879 192.544 14.1209 192.544 14.1209C182.397 19.2538 192.607 30.7013 192.607 30.7013Z" fill="#2F2E41"/>
<path d="M174.409 203.098C175.161 202.303 175.729 201.352 176.074 200.313C176.419 199.274 176.533 198.172 176.406 197.085C176.28 195.997 175.917 194.95 175.342 194.019C174.768 193.087 173.997 192.292 173.082 191.691L176.277 174.877L166.544 170.441L162.365 194.249C161.458 195.853 161.17 197.735 161.556 199.538C161.943 201.34 162.976 202.938 164.461 204.029C165.945 205.12 167.778 205.627 169.611 205.456C171.445 205.284 173.152 204.446 174.409 203.098Z" fill="#FFB7B7"/>
<path d="M176.601 71.014L174.639 69.9608C174.639 69.9608 164.038 73.9732 164.777 76.9325C165.516 79.8917 158.865 183.464 161.082 187.163C163.299 190.862 181.036 187.903 181.036 187.903L176.601 71.014Z" fill="#3F3D56"/>
<path d="M260.969 196.125C260.114 195.442 259.42 194.579 258.934 193.598C258.449 192.617 258.185 191.541 258.159 190.446C258.134 189.351 258.349 188.264 258.789 187.262C259.229 186.26 259.884 185.366 260.706 184.644L255.218 168.434L264.244 162.693L271.674 185.693C272.794 187.156 273.339 188.98 273.205 190.819C273.072 192.657 272.27 194.383 270.95 195.669C269.631 196.955 267.886 197.712 266.046 197.796C264.206 197.88 262.4 197.285 260.969 196.125V196.125Z" fill="#FFB7B7"/>
<path d="M252.306 181.994C252.306 181.994 270.281 182.468 271.965 178.497C273.65 174.527 252.747 72.8718 253.07 69.8387C253.393 66.8056 242.339 64.3001 242.339 64.3001L240.541 65.615L252.306 181.994Z" fill="#3F3D56"/>
<path d="M331.751 186.568L320.623 131.98L315.734 91.6617L304.904 98.6753L306.4 143.106L323.686 189.141C323.131 190.2 322.902 191.401 323.03 192.59C323.158 193.78 323.637 194.904 324.405 195.821C325.173 196.738 326.196 197.405 327.343 197.738C328.491 198.071 329.712 198.055 330.851 197.692C331.99 197.328 332.995 196.634 333.738 195.698C334.482 194.761 334.93 193.624 335.027 192.432C335.124 191.239 334.864 190.045 334.28 189.001C333.697 187.957 332.817 187.11 331.751 186.568H331.751Z" fill="#FFB7B7"/>
<path d="M227.666 190.788L230.746 135.161L229.726 94.5597L244.044 99.9221L246.434 144.098L236.019 192.16C236.723 193.127 237.123 194.282 237.169 195.477C237.216 196.673 236.906 197.855 236.279 198.874C235.652 199.893 234.737 200.702 233.65 201.198C232.563 201.695 231.352 201.857 230.173 201.663C228.994 201.469 227.898 200.929 227.027 200.111C226.155 199.292 225.546 198.233 225.277 197.067C225.008 195.901 225.092 194.682 225.517 193.564C225.943 192.446 226.691 191.48 227.666 190.788Z" fill="#FFB7B7"/>
<path d="M257.653 352.517H264.969L268.45 324.268L257.652 324.269L257.653 352.517Z" fill="#FFB7B7"/>
<path d="M255.787 350.126L270.195 350.125H270.196C272.631 350.125 274.966 351.094 276.688 352.818C278.41 354.541 279.378 356.879 279.378 359.317V359.615L255.788 359.616L255.787 350.126Z" fill="#2F2E41"/>
<path d="M285.364 349.276L292.594 350.396L300.349 323.012L289.677 321.36L285.364 349.276Z" fill="#FFB7B7"/>
<path d="M283.885 346.628L298.124 348.832L298.124 348.832C300.531 349.205 302.691 350.52 304.129 352.487C305.568 354.454 306.167 356.912 305.794 359.321L305.749 359.616L282.436 356.006L283.885 346.628Z" fill="#2F2E41"/>
<path d="M255.504 344.083L255.466 343.878L228.981 200.531C226.878 189.023 228.555 177.143 233.761 166.669L249.791 134.575L297.625 141.062L303.27 181.923L323.388 259.872L323.368 259.935L297.593 341.893L280.701 343.005L295.664 269.846L268.265 207.55L270.198 342.968L255.504 344.083Z" fill="#2F2E41"/>
<path d="M298.739 146.291L298.423 145.796C298.366 145.707 292.556 136.944 276.745 142.795C260.604 148.769 248.097 137.23 247.973 137.113L247.911 137.055L244.256 104.441L239.94 77.9642L253.677 75.5518L260.43 71.496L287.284 71.0173L294.351 76.5811L305.953 77.8469L307.015 101.971L307.01 101.998L298.739 146.291Z" fill="#2F7BEA"/>
<path d="M302.587 104.305V83.6477L305.85 77.6873L305.983 77.6832C308.551 77.7791 310.979 78.8832 312.74 80.7567C316.022 84.0944 317.508 89.6552 317.159 97.2847L317.152 97.4243L302.587 104.305Z" fill="#2F7BEA"/>
<path d="M245.721 102.06L229.092 100.062L229.079 99.8703C228.512 91.5693 229.959 85.4074 233.381 81.5562C235.098 79.4965 237.535 78.1686 240.195 77.8421L240.291 77.8376L244.792 81.934L245.721 102.06Z" fill="#2F7BEA"/>
<path d="M293.858 62.6937H250.101C249.2 62.6927 248.338 62.3343 247.701 61.6972C247.065 61.0601 246.707 60.1962 246.706 59.2952V43.4355C246.7 40.1095 247.35 36.8151 248.617 33.7407C249.885 30.6662 251.746 27.8722 254.093 25.5184C256.441 23.1646 259.229 21.2972 262.298 20.0231C265.367 18.749 268.657 18.0932 271.979 18.0932C275.302 18.0932 278.592 18.749 281.661 20.0231C284.73 21.2972 287.518 23.1646 289.865 25.5184C292.213 27.8722 294.074 30.6662 295.341 33.7407C296.609 36.8151 297.259 40.1095 297.253 43.4355V59.2952C297.252 60.1962 296.894 61.0601 296.257 61.6972C295.621 62.3343 294.758 62.6927 293.858 62.6937Z" fill="#2F2E41"/>
<path d="M272.995 62.5376C283.229 62.5376 291.525 54.2329 291.525 43.9886C291.525 33.7443 283.229 25.4396 272.995 25.4396C262.761 25.4396 254.465 33.7443 254.465 43.9886C254.465 54.2329 262.761 62.5376 272.995 62.5376Z" fill="#FFB7B7"/>
<path d="M290.608 44.5684H266.144C265.685 44.5678 265.241 44.3995 264.896 44.095C264.552 43.7904 264.33 43.3706 264.273 42.9141L263.956 40.3778C263.925 40.1339 263.817 39.9066 263.646 39.73C263.475 39.5535 263.251 39.4373 263.009 39.3991C262.766 39.3609 262.518 39.4027 262.301 39.5182C262.085 39.6336 261.911 39.8165 261.807 40.0393L260.204 43.4791C260.051 43.8041 259.81 44.079 259.507 44.2718C259.204 44.4647 258.853 44.5675 258.495 44.5684H254.779C254.516 44.5685 254.256 44.5135 254.015 44.4071C253.775 44.3006 253.559 44.1451 253.383 43.9503C253.206 43.7556 253.072 43.526 252.989 43.2763C252.906 43.0266 252.876 42.7623 252.901 42.5004L254.366 27.1799C254.398 26.8521 254.513 26.5381 254.702 26.2685C254.891 25.999 255.147 25.7831 255.444 25.6421C266.648 20.4064 278.009 20.4131 289.213 25.662C289.497 25.7958 289.743 25.9983 289.93 26.2513C290.116 26.5044 290.236 26.8 290.28 27.1113L292.475 42.4119C292.513 42.6798 292.494 42.9529 292.418 43.2126C292.342 43.4723 292.211 43.7125 292.034 43.9171C291.856 44.1216 291.638 44.2856 291.392 44.398C291.146 44.5104 290.878 44.5685 290.608 44.5684H290.608Z" fill="#2F2E41"/>
<path d="M300.674 188.303C301.606 187.972 302.455 187.441 303.161 186.746C303.866 186.052 304.411 185.211 304.757 184.283C305.103 183.355 305.241 182.363 305.162 181.375C305.083 180.388 304.789 179.43 304.3 178.569L320.16 160.47L307.779 158.76L294.616 176.209C293.226 177.127 292.22 178.524 291.789 180.135C291.358 181.746 291.533 183.459 292.279 184.949C293.026 186.44 294.293 187.605 295.84 188.223C297.387 188.841 299.107 188.869 300.674 188.303Z" fill="#9F616A"/>
<path d="M319.801 348.704L308.74 348.703L303.477 305.993L319.803 305.994L319.801 348.704Z" fill="#9F616A"/>
<path d="M322.622 359.437L286.955 359.436V358.984C286.955 355.299 288.418 351.764 291.021 349.158C293.625 346.552 297.156 345.088 300.838 345.088H300.839L322.623 345.089L322.622 359.437Z" fill="#2F2E41"/>
<path d="M377.705 339.437L367.14 342.721L349.462 303.493L365.054 298.648L377.705 339.437Z" fill="#9F616A"/>
<path d="M383.578 348.851L349.515 359.437L349.382 359.006C348.29 355.486 348.64 351.676 350.354 348.415C352.068 345.153 355.007 342.706 358.523 341.613L358.524 341.613L379.328 335.147L383.578 348.851Z" fill="#2F2E41"/>
<path d="M311.33 151.792L294.948 170.574L307.773 171.729L311.33 151.792Z" fill="#E6E6E6"/>
<path d="M304.929 176.001C304.929 176.001 299.238 178.849 298.527 191.666C297.816 204.483 300.661 237.951 300.661 237.951C300.661 237.951 297.816 252.904 300.661 266.432C303.506 279.96 297.816 329.089 301.373 329.089C304.929 329.089 323.422 331.225 324.134 329.089C324.845 326.952 325.557 294.911 325.557 294.911C325.557 294.911 331.247 278.534 325.557 268.568C325.557 268.568 345.425 303.298 358.276 329.803C361.088 335.604 382.46 329.091 378.904 322.682C375.347 316.274 366.812 287.081 366.812 287.081C366.812 287.081 360.41 265.719 349.03 256.463L354.72 210.893C354.72 210.893 366.813 180.275 359.701 176.003C352.589 171.731 304.929 176.001 304.929 176.001Z" fill="#2F2E41"/>
<path d="M326.267 59.9384C336.481 59.9384 344.761 51.65 344.761 41.4257C344.761 31.2014 336.481 22.913 326.267 22.913C316.054 22.913 307.774 31.2014 307.774 41.4257C307.774 51.65 316.054 59.9384 326.267 59.9384Z" fill="#A0616A"/>
<path d="M346.895 61.3627L323.904 74.8911C323.904 74.8911 315.101 79.8538 311.813 88.4196C308.307 97.5486 310.345 110.402 311.813 113.341C314.658 119.037 310.619 133.278 310.619 133.278L307.063 166.031C307.063 166.031 294.26 178.135 304.218 179.56C314.176 180.984 331.958 178.847 342.628 179.56C353.297 180.272 365.389 181.696 361.833 174.574C358.277 167.452 354.009 162.469 358.277 148.231C361.616 137.088 361.471 95.4223 361.251 77.8265C361.22 75.4102 360.573 73.0418 359.37 70.9466C358.167 68.8514 356.449 67.0992 354.378 65.8564L346.895 61.3627Z" fill="#E5E5E5"/>
<path opacity="0.1" d="M336.584 83.7924L338.718 127.226L318.038 169.148L314.531 167.812L335.87 128.65L336.584 83.7924Z" fill="black"/>
<path opacity="0.1" d="M360.054 136.482V131.496L335.873 171.372L360.054 136.482Z" fill="black"/>
<path d="M313.142 24.276L310.087 23.0525C310.087 23.0525 316.481 16.0073 325.374 16.6197L322.872 13.8628C322.872 13.8628 328.986 11.4125 334.546 17.8446C337.468 21.226 340.849 25.201 342.959 29.6779H346.233L344.867 32.6902L349.649 35.7024L344.74 35.1634C345.205 37.7639 345.046 40.4378 344.276 42.9645L344.41 45.3455C344.41 45.3455 338.717 36.527 338.717 35.3035V38.367C338.717 38.367 335.66 35.6101 335.66 33.7722L333.992 35.9166L333.158 32.548L322.874 35.9166L324.54 33.1584L318.147 34.0774L320.648 30.7087C320.648 30.7087 313.422 34.6905 313.144 38.0605C312.866 41.4304 309.253 45.718 309.253 45.718L307.585 42.6546C307.585 42.6546 305.084 28.8708 313.142 24.276Z" fill="#2F2E41"/>
<path d="M325.107 190.317C325.966 189.826 326.707 189.153 327.278 188.344C327.85 187.535 328.237 186.611 328.412 185.636C328.588 184.661 328.548 183.66 328.295 182.702C328.043 181.745 327.583 180.854 326.949 180.094L339.348 159.464L326.861 159.981L317.001 179.492C315.795 180.643 315.053 182.196 314.915 183.858C314.776 185.52 315.252 187.174 316.251 188.509C317.25 189.843 318.703 190.764 320.336 191.097C321.968 191.431 323.665 191.153 325.107 190.317Z" fill="#9F616A"/>
<path d="M353.298 70.6203L358.632 69.5525C358.632 69.5525 374.636 81.301 369.657 104.798C364.678 128.295 342.628 163.897 342.628 163.897C342.628 163.897 337.648 170.305 336.226 171.729C334.805 173.152 331.959 171.729 333.381 173.865C334.804 176.002 331.247 177.425 331.247 177.425C331.247 177.425 315.599 177.425 317.021 171.729C318.444 166.032 342.628 125.444 342.628 125.444L339.072 87.7061C339.072 87.7061 336.226 69.1961 353.298 70.6203Z" fill="#E5E5E5"/>
<path d="M603.212 361.135H121.935C121.726 361.135 121.526 361.052 121.378 360.904C121.231 360.756 121.148 360.556 121.148 360.347C121.148 360.138 121.231 359.937 121.378 359.789C121.526 359.641 121.726 359.558 121.935 359.558H603.212C603.421 359.558 603.621 359.641 603.769 359.789C603.917 359.937 604 360.138 604 360.347C604 360.556 603.917 360.756 603.769 360.904C603.621 361.052 603.421 361.135 603.212 361.135Z" fill="#CACACA"/>
<path d="M12.6873 32.9358V33.2072H5.26057C4.12056 33.2072 3.02724 33.6605 2.22113 34.4675C1.41502 35.2744 0.962158 36.3689 0.962158 37.51V53.2609C0.962158 54.4021 1.41502 55.4966 2.22113 56.3035C3.02724 57.1104 4.12056 57.5638 5.26057 57.5638H46.0042C47.1442 57.5638 48.2375 57.1104 49.0436 56.3035C49.8497 55.4966 50.3026 54.4021 50.3026 53.2609V37.51C50.3026 36.3689 49.8497 35.2744 49.0436 34.4675C48.2375 33.6605 47.1442 33.2072 46.0042 33.2072H17.9738V32.9358L12.6873 32.9358Z" fill="#3F3D56"/>
<path d="M120.68 98.3563C120.853 121.601 106.016 118.086 87.9259 118.086C69.8363 118.086 56.7489 121.548 55.1717 98.3563C52.6656 61.5034 62.3349 33.9057 87.9259 33.9057C114.398 33.9057 120.407 61.5034 120.68 98.3563Z" fill="#2F2E41"/>
<path d="M21.6073 49.0517C22.1918 50.2355 22.5099 51.5333 22.5392 52.8536C22.5685 54.1738 22.3082 55.4845 21.7768 56.6931C21.2453 57.9018 20.4556 58.9792 19.4633 59.8493C18.4709 60.7194 17.3 61.3611 16.0331 61.7292L14.3824 93.7875L0.96167 83.8995L4.58667 54.9723C4.10997 52.8008 4.44558 50.5296 5.5299 48.5892C6.61422 46.6488 8.37191 45.1739 10.4699 44.4441C12.5679 43.7143 14.8605 43.7803 16.9132 44.6295C18.9658 45.4786 20.636 47.0521 21.6073 49.0516V49.0517Z" fill="#A0616A"/>
<path d="M142.63 230.225C143.358 229.124 143.836 227.876 144.031 226.57C144.225 225.264 144.131 223.931 143.755 222.665C143.38 221.399 142.731 220.231 141.856 219.243C140.98 218.256 139.899 217.472 138.688 216.948L141.067 184.935L126.513 193.06L126.485 222.214C125.74 224.309 125.789 226.604 126.621 228.665C127.454 230.726 129.013 232.41 131.003 233.398C132.993 234.385 135.276 234.608 137.419 234.023C139.561 233.438 141.416 232.087 142.63 230.225H142.63Z" fill="#A0616A"/>
<path d="M75.6061 384.324L86.6077 384.324L91.8411 341.845L75.6038 341.845L75.6061 384.324Z" fill="#A0616A"/>
<path d="M72.7996 380.729L94.4656 380.728H94.4665C96.2797 380.728 98.0751 381.085 99.7503 381.78C101.426 382.475 102.948 383.493 104.23 384.776C105.512 386.06 106.529 387.583 107.223 389.26C107.917 390.937 108.274 392.734 108.274 394.55V394.999L72.8002 395L72.7996 380.729Z" fill="#2F2E41"/>
<path d="M145.601 384.324L156.602 384.324L161.837 341.845L145.599 341.845L145.601 384.324Z" fill="#A0616A"/>
<path d="M142.795 380.729L164.461 380.728H164.462C166.275 380.728 168.071 381.085 169.746 381.78C171.421 382.475 172.943 383.493 174.225 384.776C175.507 386.06 176.524 387.583 177.218 389.26C177.912 390.937 178.269 392.734 178.269 394.55V394.999L142.796 395L142.795 380.729Z" fill="#2F2E41"/>
<path d="M139.322 212.587L138.844 212.5C134.836 211.774 130.78 211.04 127.214 210.272L126.861 210.196L126.86 209.834C126.799 193.552 126.738 177.272 126.648 160.844C118.13 143.659 114.549 124.442 116.305 105.339L116.325 105.137L116.49 105.018C118.042 103.939 119.854 103.294 121.738 103.148C123.622 103.002 125.511 103.361 127.211 104.189C128.873 105.098 130.294 106.393 131.356 107.964C132.417 109.535 133.088 111.337 133.312 113.221C136.555 130.913 139.912 149.235 143.656 167.288L143.67 167.354L143.664 167.422C142.277 182.146 140.842 197.371 139.37 212.103L139.322 212.587Z" fill="#2F7BEA"/>
<path d="M132.15 369.185L132.062 368.771C126.915 344.401 121.947 324.555 117.142 305.364C111.385 282.364 105.928 260.569 100.42 232.366C101.176 267.932 102.933 293.485 104.953 322.856C105.865 336.118 106.808 349.833 107.765 365.842L107.794 366.331L107.306 366.319C90.0873 365.877 72.4463 364.812 55.3859 363.783L54.9346 363.756L54.9652 363.304C58.1952 315.646 59.2074 284.677 59.9464 262.064C61.5056 214.357 61.7453 207.024 79.4978 166.648C80.1706 165.116 84.1853 160.591 88.5993 161.28L123.527 166.722L123.588 167.03C124.574 171.999 129.465 187.079 136.234 207.951C150.705 252.569 172.574 319.996 179.406 360.188L179.483 360.644L179.026 360.709C169.104 362.12 161.962 363.59 155.056 365.012C148.521 366.357 141.765 367.748 132.567 369.122L132.15 369.185Z" fill="#2F2E41"/>
<path d="M101.793 179.334C92.4707 179.335 83.2563 176.097 76.6509 169.792C75.6186 169.191 74.7456 168.35 74.1055 167.341C73.4654 166.331 73.077 165.183 72.9729 163.992C72.8034 162.901 72.8746 161.786 73.1814 160.725C73.4881 159.664 74.023 158.684 74.7486 157.852C68.2724 150.005 61.5859 141.895 55.1853 133.636L55.0085 133.408L55.2134 133.017C59.401 125.008 63.7312 116.726 67.8897 108.543C68.1791 107.83 68.6555 107.208 69.2686 106.743C69.8817 106.279 70.6088 105.988 71.3731 105.903C72.0371 105.777 72.7196 105.788 73.379 105.936C74.0385 106.083 74.6609 106.364 75.2082 106.761L75.2166 106.562C75.3903 102.419 75.5643 98.2767 75.7428 94.3501L75.7619 93.9308L76.1812 93.9212C84.1769 93.7448 92.4448 93.5615 100.566 93.0799L100.875 93.0615L104.903 102.056C111.445 101.42 118.028 102.757 123.805 105.897L124.071 106.039L124.04 106.339C122.42 121.797 122.772 137.398 125.089 152.767C124.963 159.784 124.828 166.957 123.405 172.674L123.364 172.841L123.222 172.937C116.873 177.155 109.412 179.382 101.793 179.334Z" fill="#2F7BEA"/>
<path d="M67.4789 140.312L66.9424 140.066C60.6785 136.92 54.3949 133.43 48.3183 130.055L47.4788 129.891C31.4792 126.676 22.6658 124.906 8.23134 116.432L8.12048 116.367L8.0609 116.253C0.833265 102.431 -1.18276 90.3499 0.622284 71.6767L0.658426 71.3021L1.03263 71.2723C2.59735 71.1451 5.14772 71.06 7.61397 70.9775C10.0134 70.8977 12.4945 70.8144 14.0156 70.6951L14.3686 70.667L14.4777 71.0039C16.3691 76.8507 17.9758 82.3055 19.677 88.0804C21.4256 94.0168 23.2328 100.152 25.4342 106.969C33.4941 109.288 55.101 108.595 61.8192 107.679C63.8286 107.531 65.8429 107.891 67.677 108.726C69.5111 109.561 71.1062 110.844 72.3156 112.457L72.4403 112.613L72.4081 112.81C70.9291 121.846 69.2307 130.935 67.5884 139.725L67.4789 140.312Z" fill="#2F7BEA"/>
<path d="M106.863 79.0416C112.701 68.3496 108.776 54.9439 98.0951 49.0991C87.4142 43.2543 74.0224 47.1838 68.1837 57.8758C62.345 68.5678 66.2704 81.9735 76.9513 87.8182C87.6322 93.663 101.024 89.7336 106.863 79.0416Z" fill="#A0616A"/>
<path d="M62.3506 67.1431H71.068L74.9138 56.3634L75.6828 67.1431H79.8494L82.0928 60.8549L82.5415 67.1431H113.501C113.501 60.9487 111.043 55.008 106.667 50.6279C102.292 46.2478 96.3572 43.7871 90.1692 43.7871H85.6823C79.4944 43.7871 73.5598 46.2478 69.1843 50.6279C64.8087 55.008 62.3506 60.9487 62.3506 67.1431Z" fill="#2F2E41"/>
</g>
<defs>
<clipPath id="clip0_48_554">
<rect width="604" height="395" fill="white"/>
</clipPath>
</defs>
</svg>
