<svg width="711" height="537" viewBox="0 0 711 537" fill="none" xmlns="http://www.w3.org/2000/svg">
<g clip-path="url(#clip0_44_298)">
<path d="M409.729 26.1359C415.827 39.1212 402.904 42.7993 388.101 49.7592C373.298 56.7191 362.219 64.3253 356.121 51.3401C350.022 38.3548 345.074 12.5814 366.016 2.7354C387.679 -7.44984 403.63 13.1506 409.729 26.1359Z" fill="#2F2E41"/>
<path d="M379.526 51.6728C390.532 51.6728 399.454 42.7457 399.454 31.7336C399.454 20.7214 390.532 11.7943 379.526 11.7943C368.52 11.7943 359.597 20.7214 359.597 31.7336C359.597 42.7457 368.52 51.6728 379.526 51.6728Z" fill="#FFB8B8"/>
<path d="M478.256 120.16C477.566 119.259 476.876 118.374 476.179 117.513C475.278 116.393 474.372 115.308 473.46 114.258C463.131 102.332 452.145 94.823 440.048 94.0193H440.031L439.853 94.0031L415.746 117.513L407.551 125.502L407.73 125.94L412.152 136.957H489.632C486.14 131.16 482.343 125.553 478.256 120.16Z" fill="#2F2E41"/>
<path d="M357.855 39.761L364.989 36.407L363.995 26.1104L368.765 34.6315L372.175 33.0284L371.595 27.022L374.378 31.9926L399.713 20.081C397.333 15.0145 393.04 11.1013 387.776 9.20215C382.513 7.30305 376.712 7.57367 371.648 9.95446L367.976 11.6808C362.912 14.0616 359.001 18.3576 357.103 23.6236C355.205 28.8897 355.475 34.6945 357.855 39.761Z" fill="#2F2E41"/>
<path d="M522.964 401.691H106.85C103.301 401.687 99.8979 400.275 97.3881 397.763C94.8782 395.252 93.4664 391.847 93.4624 388.296V138.129C93.4653 135.527 94.4996 133.033 96.3383 131.193C98.177 129.353 100.67 128.318 103.27 128.315H526.374C529.019 128.318 531.555 129.371 533.426 131.243C535.296 133.114 536.349 135.652 536.352 138.299V388.296C536.347 391.847 534.936 395.252 532.426 397.763C529.916 400.275 526.513 401.687 522.964 401.691Z" fill="#F2F2F2"/>
<path d="M119.833 388.296H509.981C513.424 388.296 516.726 386.927 519.161 384.491C521.596 382.055 522.964 378.752 522.964 375.307V162.976C522.964 159.531 521.596 156.227 519.161 153.791C516.726 151.355 513.424 149.986 509.981 149.986H119.833C116.39 149.986 113.087 151.355 110.653 153.791C108.218 156.227 106.85 159.531 106.85 162.976V375.307C106.85 378.752 108.218 382.055 110.653 384.491C113.087 386.927 116.39 388.296 119.833 388.296Z" fill="white"/>
<path d="M536.165 137.363H93.2744V130.543C93.2796 126.98 94.6971 123.564 97.2161 121.046C99.7351 118.527 103.15 117.111 106.711 117.108H522.728C526.29 117.111 529.704 118.527 532.223 121.046C534.742 123.564 536.16 126.98 536.165 130.543V137.363Z" fill="#2F7BEA"/>
<path d="M117.694 130.733C119.613 130.733 121.169 129.176 121.169 127.255C121.169 125.335 119.613 123.778 117.694 123.778C115.774 123.778 114.218 125.335 114.218 127.255C114.218 129.176 115.774 130.733 117.694 130.733Z" fill="white"/>
<path d="M130.886 130.733C132.805 130.733 134.361 129.176 134.361 127.255C134.361 125.335 132.805 123.778 130.886 123.778C128.966 123.778 127.41 125.335 127.41 127.255C127.41 129.176 128.966 130.733 130.886 130.733Z" fill="white"/>
<path d="M144.078 130.733C145.998 130.733 147.554 129.176 147.554 127.255C147.554 125.335 145.998 123.778 144.078 123.778C142.159 123.778 140.603 125.335 140.603 127.255C140.603 129.176 142.159 130.733 144.078 130.733Z" fill="white"/>
<path d="M327.081 342.248H292.191C290.147 342.246 288.188 341.433 286.743 339.987C285.298 338.541 284.485 336.581 284.482 334.536V299.628C284.485 297.583 285.298 295.623 286.743 294.177C288.188 292.731 290.147 291.918 292.191 291.915H327.081C329.124 291.918 331.083 292.731 332.529 294.177C333.974 295.623 334.786 297.583 334.789 299.628V334.536C334.786 336.581 333.974 338.541 332.529 339.987C331.083 341.433 329.124 342.246 327.081 342.248ZM292.191 293.539C290.577 293.541 289.03 294.183 287.89 295.324C286.749 296.466 286.107 298.013 286.105 299.628V334.536C286.107 336.15 286.749 337.698 287.89 338.839C289.03 339.981 290.577 340.623 292.191 340.625H327.081C328.694 340.623 330.241 339.981 331.382 338.839C332.522 337.698 333.164 336.15 333.166 334.536V299.628C333.164 298.013 332.522 296.466 331.382 295.324C330.241 294.183 328.694 293.541 327.081 293.539H292.191Z" fill="#CCCCCC"/>
<path d="M320.184 332.506H299.087C298.442 332.506 297.823 332.249 297.367 331.792C296.911 331.336 296.654 330.717 296.653 330.071V304.093C296.654 303.447 296.911 302.828 297.367 302.371C297.823 301.915 298.442 301.658 299.087 301.657H314.374C314.928 301.658 315.466 301.847 315.899 302.194L321.708 306.865C321.993 307.093 322.222 307.382 322.38 307.711C322.537 308.039 322.619 308.399 322.618 308.764V330.071C322.617 330.717 322.36 331.336 321.904 331.792C321.448 332.249 320.829 332.506 320.184 332.506ZM299.087 303.281C298.872 303.281 298.666 303.367 298.514 303.519C298.362 303.671 298.276 303.877 298.276 304.093V330.071C298.276 330.286 298.362 330.493 298.514 330.645C298.666 330.797 298.872 330.883 299.087 330.883H320.184C320.399 330.883 320.605 330.797 320.757 330.645C320.909 330.493 320.995 330.286 320.995 330.071V308.764C320.995 308.642 320.968 308.522 320.916 308.413C320.863 308.303 320.787 308.207 320.692 308.131L314.882 303.46C314.737 303.344 314.558 303.281 314.374 303.281H299.087Z" fill="#CCCCCC"/>
<path d="M316.127 313.023H303.144C302.929 313.023 302.723 312.937 302.571 312.785C302.418 312.633 302.333 312.426 302.333 312.211C302.333 311.996 302.418 311.789 302.571 311.637C302.723 311.485 302.929 311.399 303.144 311.399H316.127C316.342 311.399 316.548 311.485 316.7 311.637C316.853 311.789 316.938 311.996 316.938 312.211C316.938 312.426 316.853 312.633 316.7 312.785C316.548 312.937 316.342 313.023 316.127 313.023Z" fill="#CCCCCC"/>
<path d="M316.127 317.894H303.144C302.929 317.894 302.723 317.808 302.571 317.656C302.418 317.504 302.333 317.297 302.333 317.082C302.333 316.867 302.418 316.66 302.571 316.508C302.723 316.356 302.929 316.27 303.144 316.27H316.127C316.342 316.27 316.548 316.356 316.7 316.508C316.853 316.66 316.938 316.867 316.938 317.082C316.938 317.297 316.853 317.504 316.7 317.656C316.548 317.808 316.342 317.894 316.127 317.894Z" fill="#CCCCCC"/>
<path d="M316.127 322.765H303.144C302.929 322.765 302.723 322.679 302.571 322.527C302.418 322.374 302.333 322.168 302.333 321.953C302.333 321.737 302.418 321.531 302.571 321.379C302.723 321.226 302.929 321.141 303.144 321.141H316.127C316.342 321.141 316.548 321.226 316.7 321.379C316.853 321.531 316.938 321.737 316.938 321.953C316.938 322.168 316.853 322.374 316.7 322.527C316.548 322.679 316.342 322.765 316.127 322.765Z" fill="#CCCCCC"/>
<path d="M409.842 342.248H374.953C372.909 342.246 370.95 341.433 369.505 339.987C368.06 338.541 367.247 336.581 367.244 334.536V299.628C367.247 297.583 368.06 295.623 369.505 294.177C370.95 292.731 372.909 291.918 374.953 291.915H409.842C411.886 291.918 413.845 292.731 415.29 294.177C416.735 295.623 417.548 297.583 417.551 299.628V334.536C417.548 336.581 416.735 338.541 415.29 339.987C413.845 341.433 411.886 342.246 409.842 342.248ZM374.953 293.539C373.339 293.541 371.792 294.183 370.651 295.324C369.511 296.466 368.869 298.013 368.867 299.628V334.536C368.869 336.15 369.511 337.698 370.651 338.839C371.792 339.981 373.339 340.623 374.953 340.625H409.842C411.456 340.623 413.003 339.981 414.143 338.839C415.284 337.698 415.926 336.15 415.928 334.536V299.628C415.926 298.013 415.284 296.466 414.143 295.324C413.003 294.183 411.456 293.541 409.842 293.539H374.953Z" fill="#CCCCCC"/>
<path d="M403.757 326.012H381.038C380.393 326.011 379.774 325.754 379.318 325.298C378.861 324.841 378.605 324.222 378.604 323.576V310.587C378.605 309.941 378.861 309.322 379.318 308.866C379.774 308.409 380.393 308.152 381.038 308.152H403.757C404.403 308.152 405.021 308.409 405.478 308.866C405.934 309.322 406.191 309.941 406.191 310.587V323.576C406.191 324.222 405.934 324.841 405.478 325.298C405.021 325.754 404.403 326.011 403.757 326.012ZM381.038 309.775C380.823 309.776 380.617 309.861 380.465 310.013C380.313 310.166 380.227 310.372 380.227 310.587V323.576C380.227 323.792 380.313 323.998 380.465 324.15C380.617 324.302 380.823 324.388 381.038 324.388H403.757C403.972 324.388 404.179 324.302 404.331 324.15C404.483 323.998 404.568 323.792 404.569 323.576V310.587C404.568 310.372 404.483 310.166 404.331 310.013C404.179 309.861 403.972 309.776 403.757 309.775H381.038Z" fill="#CCCCCC"/>
<path d="M392.398 319.224C391.942 319.224 391.495 319.097 391.108 318.856L378.985 311.276C378.803 311.161 378.674 310.979 378.626 310.77C378.577 310.56 378.614 310.34 378.728 310.158C378.842 309.975 379.024 309.845 379.233 309.797C379.443 309.748 379.663 309.785 379.846 309.899L391.968 317.479C392.097 317.559 392.246 317.601 392.398 317.601C392.55 317.601 392.699 317.559 392.828 317.479L404.95 309.899C405.132 309.785 405.352 309.748 405.562 309.797C405.771 309.845 405.953 309.975 406.067 310.158C406.181 310.34 406.218 310.56 406.169 310.77C406.121 310.979 405.992 311.161 405.81 311.276L393.688 318.856C393.301 319.097 392.854 319.224 392.398 319.224Z" fill="#CCCCCC"/>
<path d="M244.319 342.248H209.429C207.385 342.246 205.426 341.433 203.981 339.987C202.536 338.541 201.723 336.581 201.72 334.536V299.628C201.723 297.583 202.536 295.623 203.981 294.177C205.426 292.731 207.385 291.918 209.429 291.915H244.319C246.362 291.918 248.321 292.731 249.767 294.177C251.212 295.623 252.024 297.583 252.027 299.628V334.536C252.024 336.581 251.212 338.541 249.767 339.987C248.321 341.433 246.362 342.246 244.319 342.248ZM209.429 293.539C207.815 293.541 206.268 294.183 205.128 295.324C203.987 296.466 203.345 298.013 203.343 299.628V334.536C203.345 336.15 203.987 337.698 205.128 338.839C206.268 339.981 207.815 340.623 209.429 340.625H244.319C245.932 340.623 247.479 339.981 248.62 338.839C249.76 337.698 250.402 336.15 250.404 334.536V299.628C250.402 298.013 249.76 296.466 248.62 295.324C247.479 294.183 245.932 293.541 244.319 293.539H209.429Z" fill="#CCCCCC"/>
<path d="M238.233 326.012H215.514C214.869 326.011 214.25 325.754 213.794 325.298C213.337 324.841 213.081 324.222 213.08 323.576V310.587C213.081 309.941 213.337 309.322 213.794 308.866C214.25 308.409 214.869 308.152 215.514 308.152H238.233C238.878 308.152 239.497 308.409 239.953 308.866C240.41 309.322 240.666 309.941 240.667 310.587V323.576C240.666 324.222 240.41 324.841 239.953 325.298C239.497 325.754 238.878 326.011 238.233 326.012ZM215.514 309.775C215.299 309.776 215.093 309.861 214.941 310.013C214.788 310.166 214.703 310.372 214.703 310.587V323.576C214.703 323.792 214.788 323.998 214.941 324.15C215.093 324.302 215.299 324.388 215.514 324.388H238.233C238.448 324.388 238.654 324.302 238.806 324.15C238.959 323.998 239.044 323.792 239.044 323.576V310.587C239.044 310.372 238.959 310.166 238.806 310.013C238.654 309.861 238.448 309.776 238.233 309.775H215.514Z" fill="#CCCCCC"/>
<path d="M234.632 326.012H218.304C218.019 326.012 217.739 325.937 217.492 325.795C217.245 325.652 217.04 325.447 216.898 325.2C216.756 324.953 216.681 324.673 216.681 324.388C216.681 324.103 216.756 323.823 216.898 323.576L221.817 315.052C221.959 314.805 222.164 314.601 222.411 314.458C222.657 314.315 222.937 314.24 223.222 314.24C223.507 314.24 223.787 314.315 224.034 314.458C224.28 314.601 224.485 314.805 224.628 315.052L227.804 320.557L229.644 317.368C229.787 317.121 229.992 316.916 230.238 316.774C230.485 316.631 230.765 316.556 231.05 316.556C231.335 316.556 231.615 316.631 231.861 316.774C232.108 316.916 232.313 317.121 232.455 317.368L236.038 323.576C236.18 323.823 236.255 324.103 236.255 324.388C236.255 324.673 236.18 324.953 236.038 325.2C235.895 325.447 235.69 325.652 235.444 325.795C235.197 325.937 234.917 326.012 234.632 326.012H234.632ZM234.632 324.388L231.05 318.18L228.507 322.587C228.436 322.71 228.333 322.813 228.21 322.884C228.087 322.956 227.947 322.993 227.804 322.993C227.662 322.993 227.522 322.956 227.398 322.884C227.275 322.813 227.173 322.71 227.101 322.587L223.222 315.864L218.304 324.388H234.632Z" fill="#CCCCCC"/>
<path d="M235.799 314.646C236.695 314.646 237.422 313.919 237.422 313.023C237.422 312.126 236.695 311.399 235.799 311.399C234.903 311.399 234.176 312.126 234.176 313.023C234.176 313.919 234.903 314.646 235.799 314.646Z" fill="#CCCCCC"/>
<path d="M623.819 526.184L613.871 526.183L609.139 487.794L623.82 487.795L623.819 526.184Z" fill="#FFB8B8"/>
<path d="M626.355 535.832L594.281 535.831V535.425C594.281 533.784 594.604 532.16 595.231 530.645C595.858 529.129 596.778 527.752 597.937 526.592C599.097 525.432 600.473 524.512 601.988 523.885C603.502 523.257 605.126 522.934 606.765 522.934H606.766L626.356 522.935L626.355 535.832Z" fill="#2F2E41"/>
<path d="M664.388 526.184L654.441 526.183L649.708 487.794L664.39 487.795L664.388 526.184Z" fill="#FFB8B8"/>
<path d="M666.925 535.832L634.85 535.831V535.425C634.85 533.784 635.173 532.16 635.801 530.645C636.428 529.129 637.348 527.752 638.507 526.592C639.666 525.432 641.042 524.512 642.557 523.885C644.072 523.257 645.695 522.934 647.335 522.934H647.336L666.926 522.935L666.925 535.832Z" fill="#2F2E41"/>
<path d="M661.406 509.542L652.193 506.738C651.507 506.53 650.897 506.123 650.44 505.57C649.983 505.016 649.699 504.34 649.625 503.626L641.035 422.179C641.029 422.08 640.985 421.988 640.913 421.921C640.841 421.853 640.746 421.816 640.647 421.816C640.548 421.806 640.45 421.836 640.372 421.898C640.295 421.96 640.245 422.05 640.233 422.148L625.846 501.057C625.759 501.536 625.577 501.992 625.31 502.399C625.044 502.807 624.699 503.157 624.296 503.429C623.893 503.701 623.44 503.89 622.962 503.985C622.485 504.079 621.994 504.077 621.517 503.979L609.743 501.552C608.879 501.371 608.11 500.885 607.576 500.182C607.042 499.48 606.78 498.608 606.837 497.727L615.588 368.393L674.931 361.987L666.113 506.269C666.056 507.197 665.648 508.068 664.972 508.705C664.297 509.343 663.404 509.699 662.475 509.701C662.113 509.701 661.753 509.648 661.406 509.542Z" fill="#2F2E41"/>
<path d="M661.35 255.764C672.356 255.764 681.278 246.837 681.278 235.825C681.278 224.812 672.356 215.885 661.35 215.885C650.343 215.885 641.421 224.812 641.421 235.825C641.421 246.837 650.343 255.764 661.35 255.764Z" fill="#FFB8B8"/>
<path d="M615.497 369.153L628.364 288.091C629.048 283.781 630.642 279.666 633.039 276.021C635.436 272.375 638.582 269.282 642.267 266.947C645.952 264.612 650.091 263.09 654.41 262.48C658.729 261.871 663.128 262.188 667.315 263.412C674.635 265.53 680.903 270.303 684.894 276.797C688.885 283.292 690.313 291.042 688.899 298.533L675.437 370.925L615.497 369.153Z" fill="#2F7BEA"/>
<path d="M666.852 383.657C667.847 382.999 668.686 382.131 669.31 381.114C669.934 380.097 670.327 378.955 670.462 377.769C670.597 376.583 670.471 375.382 670.092 374.251C669.713 373.119 669.091 372.085 668.269 371.22L681.573 345.443L666.591 347.043L656.254 371.275C654.893 372.753 654.122 374.679 654.085 376.688C654.049 378.697 654.75 380.649 656.056 382.176C657.363 383.702 659.183 384.696 661.173 384.968C663.162 385.241 665.183 384.775 666.852 383.657V383.657Z" fill="#FFB8B8"/>
<path d="M669.7 366.673C668.964 366.569 668.277 366.243 667.731 365.739L662.641 361.033C662.091 360.522 661.711 359.855 661.553 359.121C661.395 358.387 661.465 357.622 661.755 356.93L671.928 332.804L670.485 285.134C670.693 283.601 671.2 282.125 671.978 280.789C672.756 279.452 673.79 278.283 675.02 277.347C676.25 276.41 677.652 275.726 679.147 275.332C680.642 274.939 682.199 274.844 683.731 275.053C685.262 275.262 686.737 275.771 688.072 276.55C689.407 277.33 690.575 278.365 691.509 279.597C692.444 280.829 693.127 282.233 693.519 283.728C693.911 285.224 694.004 286.783 693.794 288.315L696.261 318.281C697.011 327.376 694.434 336.434 689.009 343.77L673.145 365.228C672.84 365.641 672.451 365.984 672.004 366.236C671.558 366.489 671.063 366.644 670.552 366.693C670.269 366.72 669.982 366.713 669.7 366.673Z" fill="#2F7BEA"/>
<path d="M546.587 224.961C546.804 226.134 547.276 227.246 547.969 228.217C548.662 229.189 549.559 229.996 550.598 230.583C551.636 231.17 552.791 231.522 553.98 231.614C555.17 231.706 556.365 231.536 557.481 231.116L576.018 253.424L580.387 238.996L562.114 220.024C561.285 218.194 559.813 216.732 557.978 215.916C556.144 215.099 554.073 214.984 552.159 215.592C550.245 216.201 548.621 217.49 547.594 219.217C546.567 220.944 546.209 222.988 546.587 224.961Z" fill="#FFB8B8"/>
<path d="M561.108 234.208C561.49 233.57 562.058 233.064 562.735 232.758L569.051 229.903C569.735 229.595 570.498 229.506 571.235 229.646C571.972 229.786 572.648 230.149 573.173 230.686L591.411 249.466L635.848 266.722C637.178 267.511 638.339 268.554 639.266 269.792C640.193 271.029 640.866 272.438 641.249 273.936C641.631 275.435 641.714 276.994 641.494 278.525C641.273 280.056 640.754 281.528 639.964 282.858C639.174 284.188 638.131 285.349 636.892 286.274C635.654 287.2 634.246 287.873 632.747 288.253C631.249 288.634 629.691 288.716 628.161 288.493C626.631 288.271 625.16 287.749 623.832 286.958L595.29 277.547C586.627 274.692 579.295 268.786 574.658 260.928L561.094 237.945C560.834 237.503 560.669 237.011 560.611 236.501C560.553 235.991 560.603 235.474 560.757 234.985C560.843 234.713 560.961 234.452 561.108 234.208Z" fill="#2F7BEA"/>
<path opacity="0.1" d="M677.514 304.964L676.703 330.942L661.755 356.929L674.236 327.969L677.514 304.964Z" fill="black"/>
<path d="M659.067 239.572C657.815 239.734 656.547 239.437 655.498 238.735C654.449 238.033 653.69 236.974 653.362 235.754C653.046 234.351 652.354 233.059 651.361 232.019C650.367 230.979 649.11 230.229 647.722 229.849C644.067 229.014 639.599 230.735 636.92 227.964C636.346 227.331 635.931 226.571 635.709 225.747C635.487 224.922 635.464 224.056 635.642 223.221C636.135 220.528 638.06 218.494 640.156 216.867C644.565 213.458 649.901 211.463 655.463 211.143C658.343 211.059 661.224 211.203 664.081 211.572C667.072 211.76 670.031 212.301 672.896 213.183C676.16 214.416 679.06 216.451 681.329 219.102C683.599 221.752 685.164 224.933 685.88 228.348C686.534 231.775 686.434 235.303 685.585 238.686C684.736 242.07 683.159 245.227 680.965 247.938C678.338 251.211 674.95 253.792 671.098 255.455C670.18 255.888 669.129 255.941 668.172 255.603C665.772 254.648 666.164 251.674 667.258 249.691C668.429 247.568 670.231 245.513 669.289 242.93C668.817 241.732 667.911 240.756 666.752 240.197C664.366 238.98 661.698 239.268 659.134 239.564L659.067 239.572Z" fill="#2F2E41"/>
<path d="M539.927 250.832H293.264C289.715 250.828 286.312 249.415 283.802 246.904C281.292 244.393 279.88 240.988 279.876 237.437V184.668C279.88 181.117 281.292 177.712 283.802 175.201C286.312 172.689 289.715 171.277 293.264 171.273H539.927C543.477 171.277 546.88 172.689 549.39 175.201C551.899 177.712 553.311 181.117 553.315 184.668V237.437C553.311 240.988 551.899 244.393 549.39 246.904C546.88 249.415 543.477 250.828 539.927 250.832Z" fill="white"/>
<path d="M539.927 251.238H293.264C289.607 251.233 286.101 249.778 283.515 247.191C280.929 244.604 279.474 241.096 279.47 237.437V184.668C279.474 181.009 280.929 177.501 283.515 174.914C286.101 172.326 289.607 170.871 293.264 170.867H539.927C543.584 170.871 547.09 172.326 549.676 174.914C552.262 177.501 553.717 181.009 553.721 184.668V237.437C553.717 241.096 552.262 244.604 549.676 247.191C547.09 249.778 543.584 251.233 539.927 251.238ZM293.264 172.491C290.037 172.494 286.944 173.778 284.662 176.061C282.38 178.344 281.097 181.439 281.093 184.668V237.437C281.097 240.665 282.38 243.76 284.662 246.043C286.944 248.326 290.037 249.61 293.264 249.614H539.927C543.154 249.61 546.248 248.326 548.529 246.043C550.811 243.76 552.094 240.665 552.098 237.437V184.668C552.094 181.439 550.811 178.344 548.529 176.061C546.248 173.778 543.154 172.494 539.927 172.491H293.264Z" fill="#3F3D56"/>
<path d="M509.906 237.843H323.285C319.736 237.839 316.333 236.426 313.823 233.915C311.313 231.404 309.901 227.999 309.897 224.447V196.845C309.901 193.294 311.313 189.889 313.823 187.378C316.333 184.867 319.736 183.454 323.285 183.45H509.906C513.455 183.454 516.858 184.867 519.368 187.378C521.878 189.889 523.29 193.294 523.294 196.845V224.447C523.29 227.999 521.878 231.404 519.368 233.915C516.858 236.426 513.455 237.839 509.906 237.843Z" fill="#F2F2F2"/>
<path d="M363.445 222.965C372.288 222.965 379.456 215.793 379.456 206.946C379.456 198.099 372.288 190.927 363.445 190.927C354.603 190.927 347.435 198.099 347.435 206.946C347.435 215.793 354.603 222.965 363.445 222.965Z" fill="#FF6584"/>
<path d="M498.308 236.226L475.709 217.262L453.5 198.625C452.914 198.134 452.173 197.865 451.408 197.866C450.643 197.868 449.903 198.139 449.319 198.634L427.182 217.356L421.774 221.929L413.621 215.087L388.844 194.296C388.258 193.804 387.517 193.535 386.752 193.537C385.987 193.538 385.247 193.81 384.663 194.304L359.966 215.191L334.88 236.406C334.753 236.514 334.662 236.658 334.62 236.819C334.577 236.98 334.585 237.15 334.642 237.306C334.7 237.463 334.804 237.597 334.94 237.693C335.077 237.788 335.239 237.839 335.406 237.838L386.837 237.739L403.117 237.708L402.958 237.843L451.485 237.749L497.789 237.66C497.955 237.659 498.117 237.608 498.254 237.512C498.39 237.417 498.493 237.281 498.55 237.125C498.607 236.968 498.614 236.798 498.571 236.637C498.528 236.476 498.436 236.333 498.308 236.226Z" fill="#3F3D56"/>
<path d="M710.189 537H554.401C554.186 537 553.98 536.914 553.828 536.762C553.675 536.61 553.59 536.403 553.59 536.188C553.59 535.973 553.675 535.766 553.828 535.614C553.98 535.462 554.186 535.376 554.401 535.376H710.189C710.404 535.376 710.61 535.462 710.762 535.614C710.914 535.766 711 535.973 711 536.188C711 536.403 710.914 536.61 710.762 536.762C710.61 536.914 710.404 537 710.189 537Z" fill="#CCCCCC"/>
<path d="M490.126 107.09C489.478 106.036 488.622 105.125 487.611 104.414C486.6 103.702 485.454 103.204 484.244 102.949C483.8 102.856 483.35 102.799 482.897 102.779L421.077 47.4773C419.863 46.2286 418.243 45.4542 416.509 45.2935C416.167 45.2542 415.822 45.2433 415.478 45.261C414.052 45.3259 412.676 45.8052 411.517 46.6403C410.359 47.4753 409.468 48.6301 408.955 49.9633C408.442 51.2964 408.329 52.7503 408.628 54.147C408.928 55.5438 409.628 56.8229 410.643 57.8281L434.311 78.4728L473.176 112.366C473.208 113.005 473.303 113.638 473.46 114.258C473.926 116.053 474.925 117.664 476.326 118.877C477.728 120.091 479.464 120.85 481.306 121.053C482.987 121.249 484.688 120.968 486.216 120.241C487.427 119.674 488.501 118.852 489.364 117.83C489.453 117.725 489.534 117.627 489.615 117.513C490.75 116.034 491.407 114.244 491.498 112.381C491.589 110.519 491.111 108.673 490.126 107.09H490.126Z" fill="#FFB8B8"/>
<path d="M384.386 160.386L383.81 136.957L383.323 117.513L382.99 103.907L382.333 77.385C382.203 75.965 381.662 74.6136 380.778 73.4957C379.893 72.3778 378.702 71.5419 377.35 71.0899C375.998 70.638 374.544 70.5895 373.166 70.9505C371.787 71.3116 370.543 72.0664 369.586 73.1229C369.36 73.3643 369.157 73.6251 368.977 73.9023C367.978 75.3337 367.529 77.0776 367.711 78.8138L369.156 117.513L369.878 136.957L370.803 161.758C370.536 162.122 370.295 162.505 370.081 162.903C369.504 163.997 369.155 165.198 369.056 166.432C368.957 167.665 369.11 168.906 369.505 170.079C369.917 171.309 370.585 172.438 371.465 173.391C372.345 174.344 373.416 175.099 374.609 175.608C375.802 176.116 377.089 176.366 378.385 176.341C379.681 176.316 380.958 176.016 382.13 175.462C383.491 174.817 384.673 173.848 385.571 172.638C386.469 171.429 387.056 170.016 387.279 168.526C387.502 167.036 387.354 165.514 386.85 164.094C386.345 162.674 385.499 161.401 384.386 160.386H384.386Z" fill="#FFB8B8"/>
<path d="M440.047 94.0193L434.311 78.4728L425.028 53.29C424.359 51.4577 423.285 49.7999 421.887 48.4395C420.49 47.079 418.804 46.051 416.955 45.4316C416.809 45.3829 416.655 45.3341 416.509 45.2935C414.718 44.7496 412.83 44.6 410.976 44.855C409.121 45.1101 407.344 45.7637 405.766 46.771L374.503 66.612C371.64 68.425 369.593 71.2804 368.795 74.5752C367.997 77.87 368.511 81.3461 370.227 84.2692C374.137 91.0332 378.397 97.5881 382.99 103.907C386.633 108.868 393.417 109.395 394.593 117.513H417.645L440.98 96.5521L440.047 94.0193Z" fill="#CCCCCC"/>
<path d="M82.0843 284.02C92.4679 284.02 100.886 275.598 100.886 265.209C100.886 254.82 92.4679 246.397 82.0843 246.397C71.7006 246.397 63.283 254.82 63.283 265.209C63.283 275.598 71.7006 284.02 82.0843 284.02Z" fill="#A0616A"/>
<path d="M128.242 252.26C128.427 252.408 128.607 252.564 128.78 252.729C129.644 253.543 130.326 254.531 130.782 255.627C131.238 256.723 131.457 257.903 131.425 259.09C131.393 260.277 131.11 261.443 130.596 262.514C130.082 263.584 129.348 264.533 128.442 265.299C128.231 265.477 128.01 265.643 127.782 265.797L129.054 308.779C129.09 310.186 128.672 311.568 127.862 312.718C127.051 313.869 125.892 314.727 124.555 315.166L124.477 315.182L89.5968 318.899C88.6485 319 87.6896 318.912 86.7755 318.64C85.8614 318.368 85.0102 317.918 84.271 317.315C83.5319 316.712 82.9194 315.968 82.469 315.127C82.0186 314.286 81.7392 313.364 81.6469 312.415C81.5546 311.465 81.6513 310.506 81.9313 309.594C82.2114 308.682 82.6692 307.835 83.2784 307.1C83.8877 306.366 84.6362 305.76 85.4808 305.317C86.3255 304.874 87.2495 304.603 88.1994 304.519L113.064 302.328L117.364 265.105C117.083 264.856 116.819 264.588 116.576 264.302C115.227 262.705 114.52 260.664 114.592 258.575C114.663 256.487 115.508 254.499 116.962 252.998C118.416 251.497 120.375 250.591 122.46 250.454C124.544 250.318 126.605 250.961 128.242 252.26H128.242Z" fill="#A0616A"/>
<path d="M113.05 527.016H122.435L126.899 490.798H113.048L113.05 527.016Z" fill="#A0616A"/>
<path d="M110.656 523.95L129.138 523.949H129.139C130.686 523.949 132.217 524.254 133.646 524.846C135.075 525.438 136.374 526.306 137.467 527.401C138.561 528.495 139.429 529.794 140.021 531.224C140.613 532.654 140.917 534.186 140.917 535.734V536.117L110.657 536.118L110.656 523.95Z" fill="#2F2E41"/>
<path d="M19.7703 514.033L27.8339 518.836L50.1902 490.003L38.2887 482.913L19.7703 514.033Z" fill="#A0616A"/>
<path d="M19.281 510.174L35.1613 519.634L35.1619 519.634C36.4909 520.426 37.651 521.472 38.576 522.712C39.501 523.952 40.1728 525.363 40.553 526.863C40.9331 528.363 41.0143 529.923 40.7918 531.455C40.5692 532.986 40.0474 534.459 39.256 535.789L39.0602 536.118L13.0596 520.629L19.281 510.174Z" fill="#2F2E41"/>
<path d="M124.649 514.223H114.14C113.289 514.225 112.468 513.91 111.835 513.341C111.203 512.772 110.803 511.988 110.715 511.141L100.12 411.5C100.094 411.249 99.9853 411.014 99.8118 410.831C99.6383 410.648 99.4094 410.527 99.1605 410.487C98.9116 410.447 98.6564 410.49 98.4344 410.61C98.2124 410.729 98.0359 410.918 97.932 411.148L78.8193 453.492L44.9814 508.698C44.5434 509.406 43.8653 509.932 43.0713 510.18C42.2772 510.429 41.4204 510.383 40.6575 510.051L27.1396 504.1C26.6926 503.903 26.2926 503.613 25.966 503.25C25.6394 502.887 25.3937 502.458 25.2453 501.992C25.0969 501.527 25.049 501.035 25.1049 500.55C25.1609 500.064 25.3193 499.596 25.5697 499.177L56.6761 447.064L66.2161 403.156C63.2157 384.115 76.0786 355.806 76.2091 355.522L76.2728 355.383L111.704 341.527L111.882 341.745C125.855 387.624 134.37 436.998 128.083 511.066C128.005 511.925 127.611 512.724 126.976 513.308C126.341 513.892 125.511 514.218 124.649 514.223Z" fill="#2F2E41"/>
<path d="M74.8455 360.023L74.6805 359.676C74.6016 359.51 66.7231 342.884 60.6499 325.115C59.4827 321.679 59.0414 318.038 59.3541 314.422C59.6668 310.806 60.7265 307.295 62.4662 304.11C64.2286 300.893 66.6396 298.077 69.5465 295.84C72.4534 293.604 75.7929 291.996 79.3534 291.118C85.5346 289.635 92.0423 290.424 97.6909 293.34C103.34 296.256 107.753 301.106 110.128 307.005C114.945 319.058 113.41 331.924 111.965 342.041L111.936 342.244L111.752 342.332L74.8455 360.023Z" fill="#3F3D56"/>
<path d="M104.88 254.583H75.0259V241.562C81.5786 238.958 87.9907 236.743 91.8667 241.562C95.3181 241.562 98.6281 242.934 101.069 245.376C103.509 247.818 104.88 251.129 104.88 254.583V254.583Z" fill="#2F2E41"/>
<path d="M73.3732 239.265C55.5258 239.265 50.5303 261.648 50.5303 274.275C50.5303 281.317 53.7134 283.836 58.7152 284.688L60.4817 275.262L64.619 285.094C66.024 285.101 67.5001 285.074 69.0303 285.045L70.4331 282.155L73.5612 284.993C86.0898 285.012 96.2158 286.839 96.2158 274.275C96.2158 261.648 91.8348 239.265 73.3732 239.265Z" fill="#2F2E41"/>
<path d="M156.599 537H0.811392C0.596198 537 0.389816 536.914 0.237651 536.762C0.0854851 536.61 0 536.403 0 536.188C0 535.973 0.0854851 535.766 0.237651 535.614C0.389816 535.462 0.596198 535.376 0.811392 535.376H156.599C156.814 535.376 157.02 535.462 157.172 535.614C157.325 535.766 157.41 535.973 157.41 536.188C157.41 536.403 157.325 536.61 157.172 536.762C157.02 536.914 156.814 537 156.599 537Z" fill="#CCCCCC"/>
<path d="M159.528 269.91H124.638C122.595 269.907 120.635 269.094 119.19 267.648C117.745 266.202 116.932 264.242 116.93 262.197V227.289C116.932 225.244 117.745 223.284 119.19 221.838C120.635 220.392 122.595 219.579 124.638 219.577H159.528C161.572 219.579 163.531 220.392 164.976 221.838C166.421 223.284 167.234 225.244 167.236 227.289V262.197C167.234 264.242 166.421 266.202 164.976 267.648C163.531 269.094 161.572 269.907 159.528 269.91Z" fill="white"/>
<path d="M159.528 269.91H124.638C122.595 269.907 120.635 269.094 119.19 267.648C117.745 266.202 116.932 264.242 116.93 262.197V227.289C116.932 225.244 117.745 223.284 119.19 221.838C120.635 220.392 122.595 219.579 124.638 219.577H159.528C161.572 219.579 163.531 220.392 164.976 221.838C166.421 223.284 167.234 225.244 167.236 227.289V262.197C167.234 264.242 166.421 266.202 164.976 267.648C163.531 269.094 161.572 269.907 159.528 269.91ZM124.638 221.2C123.025 221.202 121.478 221.844 120.337 222.986C119.196 224.127 118.555 225.675 118.553 227.289V262.197C118.555 263.812 119.196 265.359 120.337 266.501C121.478 267.642 123.025 268.284 124.638 268.286H159.528C161.141 268.284 162.688 267.642 163.829 266.501C164.97 265.359 165.612 263.812 165.613 262.197V227.289C165.612 225.675 164.97 224.127 163.829 222.986C162.688 221.844 161.141 221.202 159.528 221.2H124.638Z" fill="#3F3D56"/>
<path d="M153.442 255.703H130.723C130.078 255.702 129.459 255.445 129.003 254.989C128.547 254.532 128.29 253.913 128.289 253.267V236.219C128.29 235.573 128.547 234.954 129.003 234.498C129.459 234.041 130.078 233.784 130.723 233.783H137.119C137.535 233.782 137.945 233.888 138.308 234.091C138.671 234.294 138.976 234.587 139.192 234.942L140.976 237.843H153.442C154.088 237.843 154.707 238.1 155.163 238.557C155.619 239.013 155.876 239.632 155.877 240.278V253.267C155.876 253.913 155.619 254.532 155.163 254.989C154.707 255.445 154.088 255.702 153.442 255.703Z" fill="#2F7BEA"/>
<path d="M152.704 264.315C152.817 264.523 152.922 264.737 153.018 264.957C153.498 266.043 153.744 267.218 153.739 268.405C153.734 269.592 153.478 270.765 152.988 271.846C152.499 272.927 151.786 273.893 150.897 274.68C150.008 275.466 148.964 276.056 147.831 276.411C147.568 276.492 147.3 276.56 147.029 276.613L131.532 316.721C131.02 318.032 130.099 319.143 128.906 319.889C127.713 320.634 126.311 320.975 124.909 320.861L124.831 320.846L91.2419 310.729C90.3287 310.454 89.479 310 88.7419 309.395C88.0048 308.789 87.3949 308.044 86.9474 307.201C86.4999 306.358 86.2237 305.435 86.1347 304.485C86.0458 303.535 86.1459 302.577 86.4291 301.666C86.7124 300.755 87.1733 299.909 87.7852 299.177C88.3971 298.445 89.1479 297.841 89.9942 297.401C90.8404 296.961 91.7655 296.693 92.7158 296.613C93.6661 296.533 94.623 296.642 95.531 296.933L119.297 304.568L137.696 271.931C137.534 271.592 137.395 271.242 137.282 270.884C136.658 268.889 136.798 266.734 137.674 264.836C138.55 262.939 140.099 261.435 142.021 260.616C143.943 259.798 146.101 259.723 148.075 260.406C150.049 261.09 151.699 262.483 152.704 264.315H152.704Z" fill="#A0616A"/>
</g>
<defs>
<clipPath id="clip0_44_298">
<rect width="711" height="537" fill="white"/>
</clipPath>
</defs>
</svg>
