<svg width="582" height="436" viewBox="0 0 582 436" fill="none" xmlns="http://www.w3.org/2000/svg">
<g clip-path="url(#clip0_48_506)">
<path d="M531.799 388.669L532.673 369.065C541.78 364.207 551.939 361.641 562.265 361.59C548.053 373.186 549.829 395.539 540.193 411.134C537.15 415.974 533.055 420.07 528.211 423.116C523.367 426.163 517.897 428.082 512.209 428.733L500.315 436C498.683 426.92 499.043 417.596 501.37 408.668C503.697 399.74 507.935 391.422 513.793 384.287C517.12 380.317 520.934 376.78 525.145 373.761C527.994 381.257 531.799 388.669 531.799 388.669Z" fill="#F2F2F2"/>
<path d="M123.474 214.387C122.688 213.671 122.069 212.792 121.66 211.812C121.252 210.831 121.063 209.774 121.109 208.713C121.154 207.652 121.432 206.614 121.922 205.672C122.413 204.73 123.105 203.907 123.949 203.261L115.801 178.766L128.78 182.246L134.527 204.973C135.522 206.46 135.935 208.259 135.688 210.03C135.442 211.8 134.553 213.419 133.191 214.579C131.828 215.74 130.086 216.361 128.295 216.326C126.505 216.29 124.789 215.6 123.474 214.387V214.387Z" fill="#A0616A"/>
<path d="M146.996 81.3044C149.15 82.5365 161.891 79.4837 164.38 80.3521C163.006 88.7161 170.467 85.5775 162.365 96.5616C154.263 107.546 137.946 140.479 134.239 152.788C130.532 165.096 134.201 182.443 133.646 188.276C133.378 191.656 133.394 195.053 133.696 198.43C129.319 198.375 125.004 199.281 120.559 198.702C115.818 185.314 112.63 166.258 110.466 155.726C108.301 145.195 108.222 149.648 109.215 144.382C110.207 139.116 110.448 142.943 109.405 137.905C108.362 132.867 112.58 126.537 116.476 122.928C118.157 118.105 120.328 113.608 121.992 108.835C134.181 98.2234 134.983 92.0931 146.996 81.3044Z" fill="#2F7BEA"/>
<path d="M501.154 422.416H490.385L485.261 380.961H501.156L501.154 422.416Z" fill="#FFB6B6"/>
<path d="M503.901 432.834L469.175 432.833V432.394C469.176 428.817 470.6 425.386 473.134 422.857C475.669 420.327 479.107 418.906 482.691 418.906H482.692L489.035 414.104L500.87 418.907L503.901 418.907L503.901 432.834Z" fill="#2F2E41"/>
<path d="M451.121 422.416H440.351L435.228 380.961H451.122L451.121 422.416Z" fill="#FFB6B6"/>
<path d="M453.867 432.834L419.142 432.833V432.394C419.142 428.817 420.566 425.386 423.101 422.857C425.636 420.327 429.073 418.906 432.658 418.906H432.659L439.002 414.104L450.837 418.907L453.868 418.907L453.867 432.834Z" fill="#2F2E41"/>
<path d="M446.459 195.778L516.509 197.525C529.813 204.737 530.015 220.345 525.656 238.876C525.656 238.876 527.128 249.89 524.184 252.827C521.241 255.764 519.77 255.764 521.241 260.904C522.713 266.044 514.938 274.439 515.882 275.382C516.827 276.324 519.034 281.464 519.034 281.464L511.676 323.319C511.676 323.319 506.526 396.013 505.054 397.482C503.582 398.95 502.111 397.482 503.583 401.153C505.054 404.825 506.526 403.356 505.054 404.825C503.751 406.227 502.522 407.698 501.375 409.23H483.586C483.586 409.23 482.245 401.887 482.245 401.153C482.245 400.419 480.773 396.013 480.773 395.279C480.773 394.545 482.074 393.247 482.074 393.247C482.523 391.754 482.827 390.221 482.981 388.67C482.981 387.202 487.395 330.662 487.395 330.662L478.566 257.233L457.228 329.193C457.228 329.193 457.228 392.342 455.757 393.81C454.285 395.279 454.285 394.545 455.021 397.482C455.757 400.419 458.7 399.685 456.492 401.887C454.285 404.09 453.549 400.419 454.285 404.09L455.021 407.762L432.947 408.077C432.947 408.077 430.004 401.887 431.476 399.685C432.947 397.482 432.859 398.083 431.064 394.478C429.268 390.873 428.533 390.139 429.268 389.405C430.004 388.67 430.004 384.765 430.004 384.765L433.683 314.507C433.683 314.507 434.419 240.344 434.419 238.141C434.474 237.008 434.265 235.877 433.808 234.838V231.848L436.626 221.253L446.459 195.778Z" fill="#2F2E41"/>
<path d="M488.539 50.4164C500.559 50.4164 510.304 40.6918 510.304 28.6958C510.304 16.6999 500.559 6.97524 488.539 6.97524C476.519 6.97524 466.774 16.6999 466.774 28.6958C466.774 40.6918 476.519 50.4164 488.539 50.4164Z" fill="#FFB6B6"/>
<path d="M477.657 64.7722C472.968 67.5542 470.163 72.6656 468.553 77.8669C465.572 87.4965 463.777 97.4527 463.209 107.515L461.509 137.641L440.446 201.788C458.7 217.202 527.316 205.291 527.316 205.291C527.316 205.291 529.422 204.591 527.316 202.489C525.21 200.387 523.159 202.249 525.265 200.147C527.372 198.045 525.92 200.387 525.218 198.285C524.515 196.183 525.218 197.584 525.92 196.883C526.622 196.183 520.484 189.877 520.484 189.877L526.101 153.056L533.122 78.7854C524.697 68.2755 507.753 62.0799 507.753 62.0799L503.375 54.2153L481.484 55.963L477.657 64.7722Z" fill="#3F3D56"/>
<path d="M474.672 15.9485C475.514 15.9551 476.352 16.0649 477.167 16.2754C478.775 16.661 480.407 16.9342 482.052 17.0929C487.091 17.566 491.825 19.7104 495.5 23.1837C499.174 26.657 501.575 31.2589 502.321 36.2542C503.586 35.1538 506.464 33.1297 508.823 35.0109C508.859 35.0408 508.88 35.0561 508.962 35.0169C510.529 34.2753 513.31 25.1469 513.394 17.1095C513.439 12.8436 512.766 7.39615 509.308 5.67108L509.126 5.5802L509.078 5.38263C508.847 4.42303 506.267 2.78501 501.782 1.5101C493.631 -0.806779 481.721 -1.14173 474.879 5.50041C474.362 7.73963 472.437 8.3532 470.736 8.89636C468.851 9.49756 467.224 10.0164 466.968 12.323C466.753 15.6055 466.769 18.899 467.014 22.1793C467.653 20.1721 468.906 18.4152 470.598 17.156C471.8 16.348 473.222 15.9266 474.672 15.9485Z" fill="#2F2E41"/>
<path d="M434.161 135.964L469.714 113.241L451.807 89.4858L434.125 111.192L379.032 114.564C377.583 113.135 375.748 112.157 373.752 111.75C371.756 111.343 369.684 111.524 367.789 112.272C365.894 113.02 364.259 114.302 363.081 115.961C361.904 117.621 361.236 119.586 361.158 121.618C361.081 123.65 361.598 125.661 362.646 127.405C363.694 129.149 365.227 130.551 367.06 131.44C368.892 132.329 370.944 132.667 372.966 132.412C374.987 132.157 376.891 131.321 378.444 130.005L434.161 135.964Z" fill="#FFB6B6"/>
<path d="M502.712 81.5249C504.775 93.9874 465.808 117.785 465.808 117.785C465.808 114.86 442.55 136.943 441.5 134.517C438.517 127.622 436.419 111.291 432.25 108.677C429.866 107.182 446.609 93.1398 446.609 93.1398C446.609 93.1398 455.374 84.3281 466.876 73.2135C470.069 70.0111 474.022 67.667 478.367 66.3994C482.713 65.1319 487.309 64.9821 491.728 65.964C491.728 65.964 500.648 69.0625 502.712 81.5249Z" fill="#3F3D56"/>
<path d="M463.096 224.614C463.111 237.951 460.873 251.195 456.476 263.789C456.275 264.374 456.065 264.951 455.855 265.536C446.853 289.932 430.111 310.724 408.177 324.748C406.68 325.709 405.165 326.627 403.624 327.518C386.099 337.656 366.262 343.138 346.008 343.439C345.342 343.448 344.677 343.457 344.011 343.457C343.153 343.457 342.304 343.448 341.454 343.43C321.173 343.028 301.335 337.438 283.839 327.195C282.297 326.295 280.78 325.359 279.285 324.39C254.933 308.635 237.177 284.556 229.347 256.667C221.517 228.779 224.151 198.997 236.756 172.909C237.036 172.324 237.325 171.747 237.623 171.162C247.551 151.5 262.754 134.976 281.538 123.431C300.322 111.885 321.95 105.772 344.011 105.772C366.072 105.772 387.7 111.885 406.485 123.431C425.269 134.976 440.472 151.5 450.399 171.162C450.697 171.747 450.986 172.324 451.266 172.909C459.079 189.029 463.124 206.708 463.096 224.614Z" fill="#F2F2F2"/>
<path d="M426.25 263.789V265.536H436.915V263.789H426.25ZM404.92 263.789V265.536H415.585V263.789H404.92ZM383.589 263.789V265.536H394.255V263.789H383.589ZM362.259 263.789V265.536H372.924V263.789H362.259ZM340.929 263.789V265.536H351.594V263.789H340.929ZM319.599 263.789V265.536H330.264V263.789H319.599ZM298.269 263.789V265.536H308.934V263.789H298.269ZM276.947 263.789V265.536H287.604V263.789H276.947ZM255.617 263.789V265.536H266.282V263.789H255.617ZM234.287 263.789V265.536H244.952V263.789H234.287ZM456.476 263.789H447.58V265.536H455.855L456.476 263.789Z" fill="#E6E6E6"/>
<path d="M447.58 251.555V253.303H458.245V251.555H447.58ZM426.25 251.555V253.303H436.915V251.555H426.25ZM404.92 251.555V253.303H415.585V251.555H404.92ZM383.59 251.555V253.303H394.255V251.555H383.59ZM362.259 251.555V253.303H372.924V251.555H362.259ZM340.929 251.555V253.303H351.594V251.555H340.929ZM319.599 251.555V253.303H330.264V251.555H319.599ZM298.269 251.555V253.303H308.934V251.555H298.269ZM276.947 251.555V253.303H287.604V251.555H276.947ZM255.617 251.555V253.303H266.282V251.555H255.617ZM234.287 251.555V253.303H244.952V251.555H234.287Z" fill="#E6E6E6"/>
<path d="M447.58 226.213V227.961H458.245V226.213H447.58ZM426.25 226.213V227.961H436.915V226.213H426.25ZM404.92 226.213V227.961H415.585V226.213H404.92ZM383.59 226.213V227.961H394.255V226.213H383.59ZM362.259 226.213V227.961H372.924V226.213H362.259ZM340.929 226.213V227.961H351.594V226.213H340.929ZM319.599 226.213V227.961H330.264V226.213H319.599ZM298.269 226.213V227.961H308.934V226.213H298.269ZM276.947 226.213V227.961H287.604V226.213H276.947ZM255.617 226.213V227.961H266.282V226.213H255.617ZM234.287 226.213V227.961H244.952V226.213H234.287Z" fill="#E6E6E6"/>
<path d="M447.58 208.737V210.484H458.245V208.737H447.58ZM426.25 208.737V210.484H436.915V208.737H426.25ZM404.92 208.737V210.484H415.585V208.737H404.92ZM383.59 208.737V210.484H394.255V208.737H383.59ZM362.259 208.737V210.484H372.924V208.737H362.259ZM340.929 208.737V210.484H351.594V208.737H340.929ZM319.599 208.737V210.484H330.264V208.737H319.599ZM298.269 208.737V210.484H308.934V208.737H298.269ZM276.947 208.737V210.484H287.604V208.737H276.947ZM255.617 208.737V210.484H266.282V208.737H255.617ZM234.287 208.737V210.484H244.952V208.737H234.287Z" fill="#E6E6E6"/>
<path d="M450.399 171.161H447.58V172.909H451.266C450.986 172.324 450.697 171.747 450.399 171.161ZM426.25 171.161V172.909H436.915V171.161H426.25ZM404.92 171.161V172.909H415.585V171.161H404.92ZM383.589 171.161V172.909H394.255V171.161H383.589ZM362.259 171.161V172.909H372.924V171.161H362.259ZM340.929 171.161V172.909H351.594V171.161H340.929ZM319.599 171.161V172.909H330.264V171.161H319.599ZM298.269 171.161V172.909H308.934V171.161H298.269ZM276.947 171.161V172.909H287.604V171.161H276.947ZM255.617 171.161V172.909H266.282V171.161H255.617ZM237.623 171.161C237.325 171.747 237.037 172.324 236.756 172.909H244.952V171.161H237.623Z" fill="#E6E6E6"/>
<path d="M408.177 177.051V324.748C406.68 325.709 405.165 326.627 403.624 327.518V177.051H408.177Z" fill="#3F3D56"/>
<path d="M346.008 225.986V343.439C345.342 343.448 344.677 343.457 344.011 343.457C343.153 343.457 342.304 343.448 341.455 343.431V225.986H346.008Z" fill="#3F3D56"/>
<path d="M283.839 177.051V327.195C282.298 326.295 280.78 325.36 279.285 324.39V177.051H283.839Z" fill="#3F3D56"/>
<path d="M60.7276 378.077L58.9908 353.969C47.6135 348.293 35.0197 345.475 22.3032 345.758C40.1936 359.559 38.7606 387.141 51.1507 406.018C55.0602 411.876 60.2406 416.781 66.3079 420.369C72.3751 423.958 79.1737 426.137 86.1999 426.747L101.089 435.295C102.792 424.061 102.035 412.592 98.8687 401.678C95.7026 390.764 90.2034 380.665 82.7497 372.076C78.5204 367.3 73.7052 363.073 68.4177 359.497C65.1632 368.822 60.7276 378.077 60.7276 378.077Z" fill="#F2F2F2"/>
<path d="M405.305 188.787C414.493 188.787 421.942 181.353 421.942 172.184C421.942 163.014 414.493 155.581 405.305 155.581C396.117 155.581 388.668 163.014 388.668 172.184C388.668 181.353 396.117 188.787 405.305 188.787Z" fill="#2F7BEA"/>
<path d="M413.845 165.264C413.595 165.026 413.262 164.893 412.917 164.893C412.571 164.893 412.238 165.026 411.988 165.264C408.458 168.074 405.287 171.306 402.547 174.888C401.874 173.589 401.202 172.29 400.529 170.991C399.753 169.492 397.485 170.816 398.261 172.314C399.245 174.214 400.229 176.114 401.212 178.014C401.331 178.208 401.498 178.368 401.696 178.479C401.895 178.59 402.119 178.649 402.347 178.649C402.574 178.649 402.798 178.59 402.997 178.479C403.195 178.368 403.362 178.208 403.481 178.014C406.401 173.91 409.89 170.241 413.845 167.118C414.09 166.871 414.227 166.538 414.227 166.191C414.227 165.844 414.09 165.511 413.845 165.264Z" fill="white"/>
<path d="M344.011 237.722C353.2 237.722 360.648 230.289 360.648 221.119C360.648 211.949 353.2 204.516 344.011 204.516C334.823 204.516 327.375 211.949 327.375 221.119C327.375 230.289 334.823 237.722 344.011 237.722Z" fill="#2F7BEA"/>
<path d="M352.552 214.199C352.302 213.961 351.969 213.828 351.623 213.828C351.277 213.828 350.945 213.961 350.694 214.199C347.164 217.009 343.994 220.241 341.254 223.823C340.581 222.524 339.908 221.225 339.236 219.926C338.459 218.427 336.192 219.751 336.967 221.249C337.951 223.149 338.935 225.049 339.919 226.949C340.038 227.143 340.204 227.303 340.403 227.414C340.602 227.525 340.825 227.584 341.053 227.584C341.281 227.584 341.505 227.525 341.703 227.414C341.902 227.303 342.069 227.143 342.187 226.949C345.107 222.845 348.597 219.176 352.552 216.053C352.796 215.806 352.933 215.473 352.933 215.126C352.933 214.779 352.796 214.446 352.552 214.199Z" fill="white"/>
<path d="M281.842 192.282C291.03 192.282 298.479 184.849 298.479 175.679C298.479 166.51 291.03 159.076 281.842 159.076C272.654 159.076 265.205 166.51 265.205 175.679C265.205 184.849 272.654 192.282 281.842 192.282Z" fill="#2F7BEA"/>
<path d="M290.382 168.76C290.132 168.521 289.8 168.389 289.454 168.389C289.108 168.389 288.775 168.521 288.525 168.76C284.995 171.569 281.824 174.801 279.084 178.383C278.411 177.084 277.739 175.785 277.066 174.486C276.29 172.987 274.022 174.312 274.798 175.81C275.782 177.709 276.766 179.609 277.75 181.509C277.868 181.703 278.035 181.863 278.234 181.975C278.432 182.086 278.656 182.144 278.884 182.144C279.111 182.144 279.335 182.086 279.534 181.975C279.733 181.863 279.899 181.703 280.018 181.509C282.938 177.405 286.427 173.737 290.382 170.613C290.627 170.367 290.764 170.034 290.764 169.687C290.764 169.34 290.627 169.007 290.382 168.76Z" fill="white"/>
<path d="M520.429 163.872L531.382 123.182L502.114 117.652L503.688 145.582L465.233 185.098C463.197 185.015 461.181 185.525 459.43 186.566C457.68 187.606 456.271 189.133 455.374 190.959C454.478 192.785 454.134 194.832 454.383 196.85C454.632 198.868 455.465 200.77 456.779 202.324C458.093 203.879 459.831 205.018 461.782 205.603C463.734 206.188 465.814 206.194 467.768 205.62C469.723 205.046 471.468 203.916 472.791 202.37C474.113 200.823 474.956 198.926 475.217 196.909L520.429 163.872Z" fill="#FFB6B6"/>
<path d="M534.377 77.5587C544.311 85.3855 531.56 129.165 531.56 129.165C529.586 127.003 527.292 158.958 524.879 157.87C518.021 154.778 505.451 144.114 500.605 144.983C497.834 145.48 500.737 123.847 500.737 123.847C500.737 123.847 501.271 111.442 502.275 95.4961C502.475 90.9827 503.816 86.593 506.173 82.7359C508.53 78.8788 511.827 75.6795 515.756 73.4359C515.756 73.4359 524.442 69.7318 534.377 77.5587Z" fill="#3F3D56"/>
<path d="M191.244 168.914L203.285 222.538L126.126 217.749L147.108 165.084L191.244 168.914Z" fill="#A0616A"/>
<path d="M178.396 416.411L187.063 416.41L191.186 383.047H178.394L178.396 416.411Z" fill="#A0616A"/>
<path d="M175.461 412.144L189.162 411.327V417.186L202.188 426.164C202.831 426.607 203.316 427.244 203.571 427.982C203.826 428.719 203.838 429.519 203.605 430.264C203.372 431.009 202.907 431.66 202.277 432.122C201.647 432.585 200.886 432.834 200.104 432.834H183.792L180.981 427.039L179.883 432.834H173.733L175.461 412.144Z" fill="#2F2E41"/>
<path d="M96.4778 412.107L104.949 413.94L116.065 382.208L103.564 379.502L96.4778 412.107Z" fill="#A0616A"/>
<path d="M94.5164 407.316L108.079 409.418L106.835 415.143L117.658 426.672C118.192 427.242 118.53 427.967 118.623 428.742C118.715 429.516 118.557 430.3 118.172 430.979C117.786 431.658 117.193 432.196 116.479 432.515C115.766 432.833 114.968 432.916 114.204 432.75L98.2635 429.299L96.7468 423.042L94.443 428.472L88.4326 427.171L94.5164 407.316Z" fill="#2F2E41"/>
<path d="M205.255 267.38C199.172 300.742 197.651 315.146 197.651 315.146C197.651 315.146 202.213 320.453 199.172 323.489C196.13 326.524 199.172 332.586 199.172 332.586L192.333 406.134L186.828 405.244L173.566 403.116L168.784 402.344L171.825 333.349C171.825 333.349 168.784 327.278 170.304 325.761C171.825 324.243 168.784 315.146 168.784 315.146L164.986 243.115L141.428 321.971C141.428 321.971 143.713 325.006 141.428 327.278C139.151 329.55 134.598 340.928 134.598 340.928L120.589 389.847L119.399 394.001L112.093 392.636L104.142 391.144L102.68 390.873L100.081 390.381L98.4072 390.068L97.838 389.966L95.0854 389.449L95.918 385.761L96.3513 383.819L108.202 331.288L108.474 330.076L108.763 328.796C108.763 328.796 107.242 325.006 109.519 322.726C110.185 322.031 110.672 321.184 110.937 320.259C111.202 319.335 111.237 318.36 111.04 317.418C110.965 317.339 110.897 317.254 110.836 317.164C110.567 316.795 110.382 316.373 110.292 315.926C110.088 314.976 110.267 313.645 111.805 312.111C112.238 311.652 112.601 311.132 112.884 310.568C115.194 306.202 116.358 296.952 116.358 296.952C116.358 296.952 118.414 223.692 125.142 212.501C125.499 211.916 132.642 200.685 133.016 200.456C140.611 195.912 199.782 202.189 199.782 202.189C199.782 202.189 203.366 211.797 203.528 212.798C204.403 218.419 210.411 239.08 205.255 267.38Z" fill="#2F2E41"/>
<path d="M187.275 90.9167C187.275 90.9167 188.555 84.2841 176.252 72.0061C169.739 69.8394 158.454 71.1022 154.541 72.0061C136.449 95.8398 139.688 91.6345 134.978 104.951C133.757 108.404 133.147 111.722 133.689 114.431C135.86 125.264 139.385 180.875 138.661 183.764C137.938 186.653 132.872 190.264 137.938 190.264C143.004 190.264 208.333 189.123 206.886 186.956C205.439 184.789 187.275 90.9167 187.275 90.9167Z" fill="#2F7BEA"/>
<path d="M264.864 179.039C263.872 179.423 262.807 179.585 261.746 179.513C260.684 179.442 259.652 179.139 258.72 178.626C257.789 178.113 256.981 177.402 256.354 176.544C255.728 175.686 255.298 174.701 255.094 173.659L229.489 170.03L238.392 159.983L261.341 164.97C263.118 164.744 264.917 165.176 266.395 166.185C267.874 167.194 268.931 168.709 269.365 170.443C269.799 172.178 269.581 174.011 268.751 175.595C267.922 177.179 266.538 178.405 264.864 179.04L264.864 179.039Z" fill="#A0616A"/>
<path d="M156.537 86.6474C158.602 85.272 160.947 84.626 162.834 82.7895C169.726 87.7422 170.233 79.6782 176.479 91.8094C182.725 103.941 205.003 133.189 214.395 141.984C223.787 150.778 240.983 155.226 245.969 158.321C248.882 160.066 251.937 161.564 255.101 162.799C253.102 166.685 251.993 170.944 249.494 174.658C235.371 172.931 216.855 167.291 206.443 164.535C196.03 161.778 199.99 163.832 195.708 160.599C191.426 157.367 194.966 158.857 189.982 157.544C184.997 156.232 181.197 149.644 179.695 144.555C176.116 140.905 173.049 136.962 169.508 133.35C165.417 117.732 160.865 102.187 156.537 86.6474Z" fill="#2F7BEA"/>
<path d="M172.705 62.7622C184.279 62.7622 193.661 53.3989 193.661 41.8487C193.661 30.2986 184.279 20.9353 172.705 20.9353C161.131 20.9353 151.749 30.2986 151.749 41.8487C151.749 53.3989 161.131 62.7622 172.705 62.7622Z" fill="#A0616A"/>
<path d="M186.706 80.0775C185.713 78.6618 178.286 64.625 176.079 59.3168C175.852 60.4663 175.709 61.6307 175.65 62.8009L175.628 63.2369L175.194 63.293C174.542 63.3761 159.129 65.2431 151.108 56.1663C146.355 50.7897 145.278 42.7251 147.9 32.1918C147.423 32.0984 146.966 31.9227 146.549 31.6727C145.856 31.1936 145.275 30.5693 144.848 29.8432C144.421 29.1172 144.158 28.307 144.077 27.469L143.633 27.5879C129.363 20.658 141.657 0.385921 154.691 10.4648C155.835 10.2099 157.026 10.2782 158.133 10.6622C159.2 11.0954 160.13 11.8088 160.824 12.7266C161.518 13.6444 161.95 14.7325 162.074 15.8755C168.809 12.3404 177.722 12.9157 182.332 15.568C184.262 16.6787 185.37 18.0775 185.567 19.638C191.011 19.9414 196.868 25.2344 196.868 32.7334V33.2556H196.344C194.154 33.3021 192.017 33.9424 190.163 35.1078C188.309 36.2731 186.808 37.9198 185.82 39.8714C184.481 42.2855 183.818 45.015 183.902 47.773C183.985 50.5311 184.811 53.2158 186.293 55.5451C187.907 58.0158 189.008 60.7836 189.533 63.6857C190.058 66.5877 189.995 69.5652 189.349 72.4428L187.383 81.0413L186.706 80.0775Z" fill="#2F2E41"/>
<path d="M247.512 433.007C247.513 433.143 247.486 433.279 247.434 433.405C247.381 433.531 247.305 433.646 247.208 433.743C247.111 433.84 246.996 433.916 246.869 433.968C246.743 434.02 246.607 434.047 246.47 434.047H1.04199C0.76564 434.047 0.500602 433.937 0.305191 433.742C0.109779 433.547 0 433.282 0 433.007C0 432.731 0.109779 432.466 0.305191 432.271C0.500602 432.076 0.76564 431.967 1.04199 431.967H246.47C246.607 431.966 246.743 431.993 246.869 432.045C246.996 432.097 247.111 432.174 247.208 432.27C247.305 432.367 247.381 432.482 247.434 432.608C247.486 432.735 247.513 432.87 247.512 433.007Z" fill="#CCCCCC"/>
<path d="M582 433.007C582 433.143 581.974 433.279 581.922 433.405C581.869 433.531 581.793 433.646 581.696 433.743C581.599 433.84 581.484 433.916 581.357 433.968C581.231 434.02 581.095 434.047 580.958 434.047H335.53C335.253 434.047 334.988 433.937 334.793 433.742C334.598 433.547 334.488 433.282 334.488 433.007C334.488 432.731 334.598 432.466 334.793 432.271C334.988 432.076 335.253 431.967 335.53 431.967H580.958C581.095 431.966 581.231 431.993 581.357 432.045C581.484 432.097 581.599 432.174 581.696 432.27C581.793 432.367 581.869 432.482 581.922 432.608C581.974 432.735 582 432.87 582 433.007Z" fill="#CCCCCC"/>
<path d="M281.325 358.064C286.447 358.064 290.598 353.921 290.598 348.81C290.598 343.699 286.447 339.555 281.325 339.555C276.204 339.555 272.052 343.699 272.052 348.81C272.052 353.921 276.204 358.064 281.325 358.064Z" fill="#E6E6E6"/>
<path d="M343.494 367.677C348.616 367.677 352.768 363.533 352.768 358.422C352.768 353.311 348.616 349.168 343.494 349.168C338.373 349.168 334.221 353.311 334.221 358.422C334.221 363.533 338.373 367.677 343.494 367.677Z" fill="#E6E6E6"/>
<path d="M405.663 356.317C410.785 356.317 414.937 352.173 414.937 347.062C414.937 341.951 410.785 337.808 405.663 337.808C400.542 337.808 396.39 341.951 396.39 347.062C396.39 352.173 400.542 356.317 405.663 356.317Z" fill="#E6E6E6"/>
</g>
<defs>
<clipPath id="clip0_48_506">
<rect width="582" height="436" fill="white"/>
</clipPath>
</defs>
</svg>
