<svg width="623" height="587" viewBox="0 0 623 587" fill="none" xmlns="http://www.w3.org/2000/svg">
<path d="M622.1 581.62H0.900289C0.661518 581.62 0.432525 581.499 0.263688 581.283C0.0948509 581.068 0 580.775 0 580.47C0 580.166 0.0948509 579.873 0.263688 579.658C0.432525 579.442 0.661518 579.321 0.900289 579.321H622.1C622.338 579.321 622.567 579.442 622.736 579.658C622.905 579.873 623 580.166 623 580.47C623 580.775 622.905 581.068 622.736 581.283C622.567 581.499 622.338 581.62 622.1 581.62Z" fill="#CCCCCC"/>
<path d="M541.737 377.197H65.6202C63.5986 377.197 61.6598 378 60.2303 379.429C58.8008 380.859 57.9977 382.798 57.9977 384.819C57.9977 386.841 58.8008 388.78 60.2303 390.21C61.6598 391.639 63.5986 392.442 65.6202 392.442H79.1063V574.801C79.1063 576.823 79.9094 578.761 81.3389 580.191C82.7684 581.62 84.7072 582.424 86.7289 582.424C88.7505 582.424 90.6893 581.62 92.1188 580.191C93.5483 578.761 94.3514 576.823 94.3514 574.801L94.4673 392.442H511.833V574.801C511.833 576.823 512.636 578.761 514.066 580.191C515.495 581.62 517.434 582.424 519.456 582.424C521.477 582.424 523.416 581.62 524.845 580.191C526.275 578.761 527.078 576.823 527.078 574.801V396.462L529.296 392.442H541.737C543.758 392.442 545.697 391.639 547.127 390.21C548.556 388.78 549.359 386.841 549.359 384.819C549.359 382.798 548.556 380.859 547.127 379.429C545.697 378 543.758 377.197 541.737 377.197Z" fill="#CCCCCC"/>
<path d="M329.583 381.186H185.362C182.57 381.183 179.892 380.072 177.918 378.097C175.943 376.123 174.833 373.445 174.829 370.653V291.249C174.833 288.456 175.943 285.779 177.918 283.804C179.892 281.829 182.57 280.719 185.362 280.715H329.583C332.376 280.719 335.053 281.829 337.028 283.804C339.002 285.779 340.113 288.456 340.116 291.249V370.653C340.113 373.445 339.002 376.123 337.028 378.097C335.053 380.072 332.376 381.183 329.583 381.186Z" fill="#3F3D56"/>
<path d="M329.582 288.822H185.363C184.719 288.824 184.103 289.08 183.648 289.535C183.193 289.99 182.937 290.606 182.936 291.25V370.655C182.937 371.298 183.193 371.915 183.648 372.37C184.103 372.825 184.719 373.081 185.363 373.083H329.582C330.226 373.081 330.842 372.825 331.297 372.37C331.752 371.915 332.008 371.298 332.009 370.655V291.25C332.008 290.606 331.752 289.99 331.297 289.535C330.842 289.08 330.226 288.824 329.582 288.822Z" fill="white"/>
<path d="M269.773 345.04C269.773 345.04 252.508 341.062 243.013 348.356C233.517 355.649 255.098 372.226 255.098 372.226L269.773 345.04Z" fill="#2F2E41"/>
<path d="M258.318 337.523C267.313 337.523 274.604 330.232 274.604 321.238C274.604 312.243 267.313 304.952 258.318 304.952C249.324 304.952 242.033 312.243 242.033 321.238C242.033 330.232 249.324 337.523 258.318 337.523Z" fill="#A0616A"/>
<path d="M245.725 298.377C246.811 296.533 248.385 295.026 250.274 294.021C252.163 293.016 254.292 292.553 256.428 292.682C258.661 292.962 260.841 293.572 262.896 294.493L273.542 298.646C276.297 299.72 279.314 301.036 280.509 303.741C281.619 306.251 280.791 309.15 279.953 311.764L275.97 324.187C275.529 321.375 274.771 318.622 273.713 315.981C272.637 313.321 270.692 311.104 268.196 309.69C265.43 308.272 262.171 308.301 259.067 308.45C254.67 308.662 249.89 309.221 246.766 312.322C245.108 314.084 243.983 316.279 243.524 318.654C243.072 321.017 242.844 323.416 242.844 325.822C241.041 322.722 239.522 319.466 238.306 316.093C237.306 313.582 236.736 310.92 236.62 308.219C236.516 305.495 237.42 302.828 239.159 300.729C240.042 299.703 241.194 298.944 242.484 298.538C243.775 298.131 245.154 298.094 246.465 298.429L245.725 298.377Z" fill="#2F2E41"/>
<path d="M297.203 359.162C297.051 358.612 296.739 358.12 296.307 357.746C295.875 357.373 295.342 357.135 294.776 357.063C294.739 357.037 294.699 357.013 294.659 356.993L270.347 343.368C269.653 342.979 268.835 342.872 268.065 343.071C267.294 343.269 266.629 343.757 266.209 344.433L259.56 355.198L249.545 345.183L249.386 345.024C248.872 344.51 248.193 344.194 247.469 344.13C246.745 344.067 246.022 344.261 245.427 344.678L225.446 358.67C225.411 358.67 225.376 358.681 225.341 358.681C224.384 358.841 223.511 359.322 222.865 360.044C222.219 360.767 221.838 361.689 221.787 362.657L221.271 373.083H301.062L297.203 359.162Z" fill="#2F7BEA"/>
<path d="M341.736 371.463H326.342C326.342 371.033 326.171 370.621 325.867 370.317C325.563 370.013 325.151 369.843 324.722 369.843H319.86C319.43 369.843 319.018 370.013 318.714 370.317C318.41 370.621 318.24 371.033 318.24 371.463H313.378C313.378 371.033 313.208 370.621 312.904 370.317C312.6 370.013 312.188 369.843 311.758 369.843H306.896C306.467 369.843 306.055 370.013 305.751 370.317C305.447 370.621 305.276 371.033 305.276 371.463H300.415C300.415 371.033 300.244 370.621 299.94 370.317C299.636 370.013 299.224 369.843 298.794 369.843H293.933C293.503 369.843 293.091 370.013 292.787 370.317C292.483 370.621 292.312 371.033 292.312 371.463H287.451C287.451 371.033 287.28 370.621 286.976 370.317C286.672 370.013 286.26 369.843 285.831 369.843H280.969C280.539 369.843 280.127 370.013 279.823 370.317C279.519 370.621 279.349 371.033 279.349 371.463H274.487C274.487 371.033 274.317 370.621 274.013 370.317C273.709 370.013 273.297 369.843 272.867 369.843H268.005C267.576 369.843 267.164 370.013 266.86 370.317C266.556 370.621 266.385 371.033 266.385 371.463H261.524C261.524 371.033 261.353 370.621 261.049 370.317C260.745 370.013 260.333 369.843 259.903 369.843H255.042C254.612 369.843 254.2 370.013 253.896 370.317C253.592 370.621 253.421 371.033 253.421 371.463H248.56C248.56 371.033 248.389 370.621 248.085 370.317C247.781 370.013 247.369 369.843 246.939 369.843H242.078C241.648 369.843 241.236 370.013 240.932 370.317C240.628 370.621 240.458 371.033 240.458 371.463H235.596C235.596 371.033 235.426 370.621 235.122 370.317C234.818 370.013 234.406 369.843 233.976 369.843H229.114C228.685 369.843 228.272 370.013 227.969 370.317C227.665 370.621 227.494 371.033 227.494 371.463H222.633C222.633 371.033 222.462 370.621 222.158 370.317C221.854 370.013 221.442 369.843 221.012 369.843H216.151C215.721 369.843 215.309 370.013 215.005 370.317C214.701 370.621 214.53 371.033 214.53 371.463H209.669C209.669 371.033 209.498 370.621 209.194 370.317C208.89 370.013 208.478 369.843 208.048 369.843H203.187C202.757 369.843 202.345 370.013 202.041 370.317C201.737 370.621 201.567 371.033 201.567 371.463H196.705C196.705 371.033 196.535 370.621 196.231 370.317C195.927 370.013 195.515 369.843 195.085 369.843H190.223C189.794 369.843 189.381 370.013 189.078 370.317C188.774 370.621 188.603 371.033 188.603 371.463H173.209C171.921 371.465 170.686 371.978 169.776 372.89C168.866 373.801 168.355 375.036 168.355 376.325C168.355 377.613 168.866 378.848 169.776 379.759C170.686 380.671 171.921 381.184 173.209 381.186H341.736C343.026 381.186 344.262 380.674 345.174 379.762C346.086 378.85 346.598 377.614 346.598 376.325C346.598 375.035 346.086 373.799 345.174 372.887C344.262 371.975 343.026 371.463 341.736 371.463Z" fill="#3F3D56"/>
<path d="M148.149 343.231V375.511H67.2768C65.1101 375.586 62.9503 375.225 60.9263 374.448C58.9024 373.67 57.0556 372.494 55.4961 370.988C53.9366 369.481 52.6963 367.677 51.8493 365.681C51.0022 363.685 50.5657 361.539 50.5657 359.371C50.5657 357.203 51.0022 355.057 51.8493 353.061C52.6963 351.065 53.9366 349.261 55.4961 347.755C57.0556 346.248 58.9024 345.072 60.9263 344.294C62.9503 343.517 65.1101 343.156 67.2768 343.231H148.149Z" fill="#F2F2F2"/>
<path d="M150.135 375.263C150.135 375.592 150.004 375.908 149.772 376.141C149.539 376.373 149.223 376.504 148.894 376.504H65.8363C61.3253 376.504 56.999 374.712 53.8093 371.522C50.6195 368.333 48.8275 364.006 48.8275 359.495C48.8275 354.984 50.6195 350.658 53.8093 347.468C56.999 344.278 61.3253 342.486 65.8363 342.486H148.894C149.223 342.486 149.539 342.617 149.772 342.85C150.004 343.083 150.135 343.398 150.135 343.728C150.135 344.057 150.004 344.373 149.772 344.606C149.539 344.838 149.223 344.969 148.894 344.969H65.8363C61.9861 344.973 58.2948 346.505 55.5735 349.228C52.8522 351.952 51.3236 355.645 51.3236 359.495C51.3236 363.345 52.8522 367.038 55.5735 369.762C58.2948 372.486 61.9861 374.018 65.8363 374.021H148.894C149.223 374.021 149.539 374.152 149.772 374.385C150.004 374.618 150.135 374.933 150.135 375.263Z" fill="#2F7BEA"/>
<path d="M148.149 350.68H61.2427C61.2099 350.681 61.1775 350.674 61.1471 350.662C61.1168 350.649 61.0892 350.631 61.066 350.608C61.0428 350.585 61.0243 350.558 61.0118 350.527C60.9992 350.497 60.9927 350.465 60.9927 350.432C60.9927 350.399 60.9992 350.367 61.0118 350.337C61.0243 350.306 61.0428 350.279 61.066 350.256C61.0892 350.233 61.1168 350.214 61.1471 350.202C61.1775 350.19 61.2099 350.183 61.2427 350.184H148.149C148.214 350.184 148.277 350.21 148.323 350.257C148.37 350.303 148.395 350.366 148.395 350.432C148.395 350.498 148.37 350.56 148.323 350.607C148.277 350.653 148.214 350.68 148.149 350.68Z" fill="#CCCCCC"/>
<path d="M148.149 356.64H61.2427C61.2099 356.64 61.1775 356.634 61.1471 356.621C61.1168 356.609 61.0892 356.591 61.066 356.568C61.0428 356.544 61.0243 356.517 61.0118 356.487C60.9992 356.457 60.9927 356.424 60.9927 356.391C60.9927 356.359 60.9992 356.326 61.0118 356.296C61.0243 356.266 61.0428 356.238 61.066 356.215C61.0892 356.192 61.1168 356.174 61.1471 356.161C61.1775 356.149 61.2099 356.143 61.2427 356.143H148.149C148.214 356.144 148.277 356.17 148.323 356.216C148.37 356.263 148.395 356.326 148.395 356.391C148.395 356.457 148.37 356.52 148.323 356.566C148.277 356.613 148.214 356.639 148.149 356.64Z" fill="#CCCCCC"/>
<path d="M148.149 362.599H61.2427C61.2099 362.599 61.1775 362.593 61.1471 362.581C61.1168 362.568 61.0892 362.55 61.066 362.527C61.0428 362.504 61.0243 362.476 61.0118 362.446C60.9992 362.416 60.9927 362.384 60.9927 362.351C60.9927 362.318 60.9992 362.286 61.0118 362.255C61.0243 362.225 61.0428 362.198 61.066 362.175C61.0892 362.152 61.1168 362.133 61.1471 362.121C61.1775 362.109 61.2099 362.102 61.2427 362.103H148.149C148.214 362.103 148.277 362.129 148.323 362.176C148.37 362.222 148.395 362.285 148.395 362.351C148.395 362.416 148.37 362.479 148.323 362.526C148.277 362.572 148.214 362.599 148.149 362.599Z" fill="#CCCCCC"/>
<path d="M148.149 368.558H61.2427C61.2099 368.559 61.1775 368.552 61.1471 368.54C61.1168 368.528 61.0892 368.509 61.066 368.486C61.0428 368.463 61.0243 368.436 61.0118 368.405C60.9992 368.375 60.9927 368.343 60.9927 368.31C60.9927 368.277 60.9992 368.245 61.0118 368.215C61.0243 368.184 61.0428 368.157 61.066 368.134C61.0892 368.111 61.1168 368.093 61.1471 368.08C61.1775 368.068 61.2099 368.062 61.2427 368.062H148.149C148.214 368.062 148.277 368.089 148.323 368.135C148.37 368.182 148.395 368.245 148.395 368.31C148.395 368.376 148.37 368.439 148.323 368.485C148.277 368.532 148.214 368.558 148.149 368.558Z" fill="#CCCCCC"/>
<path d="M132.904 309.222V341.502H52.0315C49.8647 341.578 47.705 341.216 45.681 340.439C43.657 339.662 41.8102 338.485 40.2507 336.979C38.6912 335.472 37.451 333.668 36.6039 331.672C35.7569 329.676 35.3203 327.53 35.3203 325.362C35.3203 323.194 35.7569 321.048 36.6039 319.052C37.451 317.057 38.6912 315.252 40.2507 313.746C41.8102 312.239 43.657 311.063 45.681 310.285C47.705 309.508 49.8647 309.147 52.0315 309.222H132.904Z" fill="#F2F2F2"/>
<path d="M134.89 341.254C134.89 341.583 134.759 341.899 134.526 342.132C134.294 342.364 133.978 342.495 133.649 342.495H50.5912C48.3576 342.495 46.1458 342.055 44.0822 341.201C42.0186 340.346 40.1436 339.093 38.5642 337.513C36.9847 335.934 35.7319 334.059 34.8771 331.995C34.0223 329.932 33.5824 327.72 33.5824 325.486C33.5824 323.253 34.0223 321.041 34.8771 318.977C35.7319 316.913 36.9847 315.038 38.5642 313.459C40.1436 311.879 42.0186 310.627 44.0822 309.772C46.1458 308.917 48.3576 308.477 50.5912 308.477H133.649C133.978 308.477 134.294 308.608 134.527 308.841C134.759 309.074 134.89 309.389 134.89 309.719C134.89 310.048 134.759 310.364 134.527 310.596C134.294 310.829 133.978 310.96 133.649 310.96H50.5912C46.741 310.964 43.0497 312.496 40.3284 315.219C37.6071 317.943 36.0785 321.636 36.0785 325.486C36.0785 329.336 37.6071 333.029 40.3284 335.753C43.0497 338.477 46.741 340.009 50.5912 340.012H133.649C133.978 340.012 134.294 340.143 134.526 340.376C134.759 340.609 134.89 340.925 134.89 341.254Z" fill="#3F3D56"/>
<path d="M132.904 316.671H45.9976C45.9648 316.671 45.9323 316.665 45.902 316.653C45.8717 316.64 45.8441 316.622 45.8209 316.599C45.7976 316.576 45.7792 316.549 45.7666 316.518C45.754 316.488 45.7476 316.456 45.7476 316.423C45.7476 316.39 45.754 316.358 45.7666 316.327C45.7792 316.297 45.7976 316.27 45.8209 316.247C45.8441 316.224 45.8717 316.205 45.902 316.193C45.9323 316.181 45.9648 316.174 45.9976 316.175H132.904C132.969 316.175 133.032 316.201 133.078 316.248C133.124 316.294 133.15 316.357 133.15 316.423C133.15 316.488 133.124 316.551 133.078 316.598C133.032 316.644 132.969 316.671 132.904 316.671Z" fill="#CCCCCC"/>
<path d="M132.904 322.631H45.9976C45.9648 322.631 45.9323 322.625 45.902 322.612C45.8717 322.6 45.8441 322.582 45.8209 322.559C45.7976 322.535 45.7792 322.508 45.7666 322.478C45.754 322.448 45.7476 322.415 45.7476 322.382C45.7476 322.35 45.754 322.317 45.7666 322.287C45.7792 322.257 45.7976 322.229 45.8209 322.206C45.8441 322.183 45.8717 322.165 45.902 322.152C45.9323 322.14 45.9648 322.134 45.9976 322.134H132.904C132.969 322.134 133.032 322.161 133.078 322.207C133.124 322.254 133.15 322.317 133.15 322.382C133.15 322.448 133.124 322.511 133.078 322.557C133.032 322.604 132.969 322.63 132.904 322.631Z" fill="#CCCCCC"/>
<path d="M132.904 328.59H45.9976C45.9648 328.59 45.9323 328.584 45.902 328.572C45.8717 328.559 45.8441 328.541 45.8209 328.518C45.7976 328.495 45.7792 328.467 45.7666 328.437C45.754 328.407 45.7476 328.375 45.7476 328.342C45.7476 328.309 45.754 328.277 45.7666 328.246C45.7792 328.216 45.7976 328.189 45.8209 328.166C45.8441 328.143 45.8717 328.124 45.902 328.112C45.9323 328.1 45.9648 328.093 45.9976 328.094H132.904C132.969 328.094 133.032 328.12 133.078 328.167C133.124 328.213 133.15 328.276 133.15 328.342C133.15 328.407 133.124 328.47 133.078 328.517C133.032 328.563 132.969 328.59 132.904 328.59Z" fill="#CCCCCC"/>
<path d="M132.904 334.549H45.9976C45.9648 334.55 45.9323 334.543 45.902 334.531C45.8717 334.519 45.8441 334.5 45.8209 334.477C45.7976 334.454 45.7792 334.427 45.7666 334.397C45.754 334.366 45.7476 334.334 45.7476 334.301C45.7476 334.268 45.754 334.236 45.7666 334.206C45.7792 334.176 45.7976 334.148 45.8209 334.125C45.8441 334.102 45.8717 334.084 45.902 334.071C45.9323 334.059 45.9648 334.053 45.9976 334.053H132.904C132.969 334.053 133.032 334.08 133.078 334.126C133.124 334.173 133.15 334.236 133.15 334.301C133.15 334.367 133.124 334.43 133.078 334.476C133.032 334.523 132.969 334.549 132.904 334.549Z" fill="#CCCCCC"/>
<path d="M226.983 490.249V462.104C226.983 460.86 226.488 459.667 225.609 458.787C224.729 457.907 223.536 457.413 222.292 457.413H115.576C114.332 457.413 113.139 457.907 112.259 458.787C111.379 459.667 110.885 460.86 110.885 462.104V490.249H226.983Z" fill="#CCCCCC"/>
<path d="M226.983 500.804H110.885V537.158H226.983V500.804Z" fill="#CCCCCC"/>
<path d="M110.885 547.713V575.858C110.885 577.102 111.379 578.295 112.259 579.175C113.139 580.055 114.332 580.549 115.576 580.549H222.292C223.536 580.549 224.729 580.055 225.609 579.175C226.488 578.295 226.983 577.102 226.983 575.858V547.713H110.885Z" fill="#CCCCCC"/>
<path d="M168.347 478.522C170.29 478.522 171.866 476.947 171.866 475.004C171.866 473.061 170.29 471.486 168.347 471.486C166.404 471.486 164.829 473.061 164.829 475.004C164.829 476.947 166.404 478.522 168.347 478.522Z" fill="white"/>
<path d="M168.347 525.431C170.29 525.431 171.866 523.856 171.866 521.913C171.866 519.97 170.29 518.395 168.347 518.395C166.404 518.395 164.829 519.97 164.829 521.913C164.829 523.856 166.404 525.431 168.347 525.431Z" fill="white"/>
<path d="M168.536 571.347C170.479 571.347 172.054 569.772 172.054 567.829C172.054 565.886 170.479 564.311 168.536 564.311C166.593 564.311 165.018 565.886 165.018 567.829C165.018 569.772 166.593 571.347 168.536 571.347Z" fill="white"/>
<path d="M213.82 425.322V457.602H132.948C130.781 457.677 128.621 457.316 126.597 456.538C124.573 455.761 122.727 454.585 121.167 453.078C119.608 451.572 118.368 449.767 117.52 447.772C116.673 445.776 116.237 443.63 116.237 441.462C116.237 439.294 116.673 437.148 117.52 435.152C118.368 433.156 119.608 431.352 121.167 429.845C122.727 428.339 124.573 427.162 126.597 426.385C128.621 425.608 130.781 425.246 132.948 425.322H213.82Z" fill="#F2F2F2"/>
<path d="M215.807 457.353C215.806 457.683 215.676 457.998 215.443 458.231C215.21 458.464 214.894 458.595 214.565 458.595H131.508C129.273 458.597 127.059 458.158 124.994 457.304C122.929 456.45 121.052 455.198 119.471 453.618C117.89 452.039 116.636 450.163 115.781 448.098C114.925 446.034 114.485 443.821 114.485 441.586C114.485 439.351 114.925 437.138 115.781 435.074C116.636 433.009 117.89 431.133 119.471 429.554C121.052 427.974 122.929 426.721 124.994 425.867C127.059 425.014 129.273 424.575 131.508 424.577H214.565C214.894 424.577 215.21 424.708 215.443 424.94C215.676 425.173 215.807 425.489 215.807 425.818C215.807 426.148 215.676 426.463 215.443 426.696C215.21 426.929 214.894 427.06 214.565 427.06H131.508C127.657 427.063 123.966 428.595 121.245 431.319C118.523 434.043 116.995 437.736 116.995 441.586C116.995 445.436 118.523 449.129 121.245 451.853C123.966 454.577 127.657 456.108 131.508 456.112H214.565C214.894 456.112 215.21 456.243 215.443 456.476C215.676 456.709 215.806 457.024 215.807 457.353Z" fill="#3F3D56"/>
<path d="M213.82 432.771H126.914C126.881 432.771 126.849 432.765 126.819 432.752C126.788 432.74 126.761 432.722 126.737 432.699C126.714 432.676 126.696 432.648 126.683 432.618C126.671 432.588 126.664 432.555 126.664 432.523C126.664 432.49 126.671 432.457 126.683 432.427C126.696 432.397 126.714 432.37 126.737 432.346C126.761 432.323 126.788 432.305 126.819 432.293C126.849 432.28 126.881 432.274 126.914 432.274H213.82C213.886 432.275 213.949 432.301 213.995 432.348C214.041 432.394 214.067 432.457 214.067 432.523C214.067 432.588 214.041 432.651 213.995 432.698C213.949 432.744 213.886 432.77 213.82 432.771Z" fill="#CCCCCC"/>
<path d="M213.82 438.73H126.914C126.881 438.731 126.849 438.724 126.819 438.712C126.788 438.7 126.761 438.681 126.737 438.658C126.714 438.635 126.696 438.608 126.683 438.578C126.671 438.547 126.664 438.515 126.664 438.482C126.664 438.449 126.671 438.417 126.683 438.387C126.696 438.356 126.714 438.329 126.737 438.306C126.761 438.283 126.788 438.265 126.819 438.252C126.849 438.24 126.881 438.234 126.914 438.234H213.82C213.886 438.234 213.949 438.261 213.995 438.307C214.041 438.354 214.067 438.417 214.067 438.482C214.067 438.548 214.041 438.611 213.995 438.657C213.949 438.704 213.886 438.73 213.82 438.73Z" fill="#CCCCCC"/>
<path d="M213.82 444.69H126.914C126.881 444.69 126.849 444.684 126.819 444.671C126.788 444.659 126.761 444.641 126.737 444.618C126.714 444.595 126.696 444.567 126.683 444.537C126.671 444.507 126.664 444.474 126.664 444.442C126.664 444.409 126.671 444.376 126.683 444.346C126.696 444.316 126.714 444.288 126.737 444.265C126.761 444.242 126.788 444.224 126.819 444.212C126.849 444.199 126.881 444.193 126.914 444.193H213.82C213.886 444.194 213.949 444.22 213.995 444.267C214.041 444.313 214.067 444.376 214.067 444.442C214.067 444.507 214.041 444.57 213.995 444.617C213.949 444.663 213.886 444.689 213.82 444.69Z" fill="#CCCCCC"/>
<path d="M213.82 450.649H126.914C126.881 450.649 126.849 450.643 126.819 450.631C126.788 450.618 126.761 450.6 126.737 450.577C126.714 450.554 126.696 450.526 126.683 450.496C126.671 450.466 126.664 450.434 126.664 450.401C126.664 450.368 126.671 450.336 126.683 450.305C126.696 450.275 126.714 450.248 126.737 450.225C126.761 450.202 126.788 450.183 126.819 450.171C126.849 450.158 126.881 450.152 126.914 450.152H213.82C213.886 450.153 213.949 450.179 213.995 450.226C214.041 450.272 214.067 450.335 214.067 450.401C214.067 450.466 214.041 450.529 213.995 450.576C213.949 450.622 213.886 450.649 213.82 450.649Z" fill="#CCCCCC"/>
<path d="M104.795 214.634V8.82057C104.798 6.48203 105.728 4.24003 107.382 2.58643C109.035 0.932832 111.277 0.00266002 113.616 0H276.303C278.641 0.00267551 280.883 0.932853 282.537 2.58645C284.19 4.24005 285.121 6.48204 285.123 8.82057V214.634C285.121 216.972 284.19 219.214 282.537 220.868C280.883 222.521 278.641 223.452 276.303 223.454H113.616C111.277 223.452 109.035 222.521 107.382 220.868C105.728 219.214 104.798 216.972 104.795 214.634ZM113.616 1.96013C111.797 1.96217 110.053 2.68562 108.767 3.97176C107.481 5.2579 106.758 7.0017 106.755 8.82057V214.634C106.758 216.453 107.481 218.196 108.767 219.483C110.053 220.769 111.797 221.492 113.616 221.494H276.303C278.122 221.492 279.865 220.769 281.152 219.483C282.438 218.196 283.161 216.453 283.163 214.634V8.82057C283.161 7.0017 282.438 5.2579 281.152 3.97176C279.865 2.68562 278.122 1.96217 276.303 1.96013H113.616Z" fill="#E6E6E6"/>
<path d="M204.083 94.5189V52.2589C204.084 51.0896 204.549 49.9686 205.376 49.1418C206.202 48.315 207.323 47.8499 208.493 47.8486H244.303C245.473 47.8499 246.594 48.315 247.42 49.1418C248.247 49.9686 248.712 51.0896 248.714 52.2589V94.5189C248.712 95.6882 248.247 96.8092 247.42 97.636C246.594 98.4628 245.473 98.9279 244.303 98.9291H208.493C207.323 98.9279 206.202 98.4628 205.376 97.636C204.549 96.8092 204.084 95.6882 204.083 94.5189Z" fill="#8D10FC"/>
<path d="M134.5 114.12V71.8602C134.501 70.6909 134.966 69.5699 135.793 68.7431C136.619 67.9163 137.74 67.4512 138.91 67.45H174.721C175.89 67.4512 177.011 67.9163 177.838 68.7431C178.664 69.5699 179.129 70.6909 179.131 71.8602V114.12C179.129 115.289 178.664 116.41 177.838 117.237C177.011 118.064 175.89 118.529 174.721 118.53H138.91C137.74 118.529 136.619 118.064 135.793 117.237C134.966 116.41 134.501 115.289 134.5 114.12Z" fill="#2F7BEA"/>
<path d="M190.362 173.904V131.644C190.363 130.475 190.828 129.354 191.655 128.527C192.482 127.7 193.603 127.235 194.772 127.234H230.583C231.752 127.235 232.873 127.7 233.7 128.527C234.527 129.354 234.992 130.475 234.993 131.644V173.904C234.992 175.073 234.527 176.194 233.7 177.021C232.873 177.848 231.752 178.313 230.583 178.314H194.772C193.603 178.313 192.482 177.848 191.655 177.021C190.828 176.194 190.363 175.073 190.362 173.904Z" fill="#EF6600"/>
<path d="M404.365 367.113H367.519C367.169 367.113 366.824 367.193 366.51 367.348L357.211 372.004C356.905 372.134 356.644 372.351 356.46 372.628C356.277 372.906 356.179 373.231 356.179 373.563C356.179 373.896 356.277 374.221 356.46 374.498C356.644 374.776 356.905 374.993 357.211 375.123L366.51 379.779C366.824 379.933 367.169 380.014 367.519 380.013H404.365C404.873 380.043 405.372 379.871 405.754 379.535C406.135 379.199 406.37 378.726 406.406 378.219V368.908C406.37 368.4 406.136 367.927 405.754 367.592C405.372 367.256 404.873 367.084 404.365 367.113Z" fill="#3F3D56"/>
<path d="M406.406 368.908V378.219C406.37 378.726 406.136 379.199 405.754 379.535C405.372 379.871 404.873 380.043 404.365 380.013H397.024V367.113H404.365C404.873 367.084 405.372 367.256 405.754 367.592C406.136 367.928 406.37 368.4 406.406 368.908Z" fill="#2F7BEA"/>
<path d="M404.088 297.453C405.757 296.733 407.559 296.374 409.377 296.398C411.194 296.423 412.986 296.832 414.635 297.597C416.283 298.363 417.752 299.468 418.943 300.841C420.135 302.213 421.023 303.822 421.55 305.562C421.714 306.114 421.839 306.676 421.925 307.245L473.451 332.797L485.376 324.894L500.213 341.975L482.005 356.763C479.816 358.528 477.116 359.539 474.306 359.647C471.496 359.756 468.726 358.955 466.407 357.365L414.129 321.212C413.74 321.377 413.343 321.522 412.939 321.646C411.199 322.172 409.367 322.325 407.564 322.094C405.761 321.863 404.027 321.253 402.476 320.306C400.924 319.358 399.591 318.093 398.563 316.594C397.534 315.094 396.834 313.395 396.509 311.606C396.412 311.087 396.349 310.563 396.318 310.035C396.173 307.396 396.84 304.775 398.229 302.525C399.618 300.276 401.663 298.506 404.088 297.453Z" fill="#FFB8B8"/>
<path d="M511.407 454.773H455.106C455.106 456.391 397.081 457.705 397.081 457.705C396.17 458.39 395.34 459.177 394.606 460.05C392.402 462.679 391.198 466.001 391.205 469.432V471.777C391.207 475.665 392.751 479.392 395.5 482.141C398.249 484.89 401.977 486.435 405.864 486.436H511.407C515.294 486.433 519.02 484.887 521.768 482.139C524.517 479.391 526.062 475.664 526.066 471.777V469.432C526.06 465.546 524.514 461.82 521.766 459.072C519.018 456.324 515.293 454.778 511.407 454.773Z" fill="#3F3D56"/>
<path d="M450.164 584.363H465.409V485.854H450.164V584.363Z" fill="#3F3D56"/>
<path d="M406.775 583.827C406.775 585.475 429.876 584.464 458.374 584.464C486.871 584.464 509.972 585.475 509.972 583.827C509.972 582.18 486.871 569.117 458.374 569.117C429.876 569.117 406.775 582.18 406.775 583.827Z" fill="#3F3D56"/>
<path d="M420.537 572.282L406.16 572.28L399.32 534.991L420.539 534.992L420.537 572.282Z" fill="#FFB8B8"/>
<path d="M424.204 586.218L377.846 586.216V585.63C377.846 583.26 378.313 580.914 379.22 578.724C380.126 576.535 381.456 574.546 383.131 572.871C384.807 571.195 386.796 569.866 388.985 568.959C391.174 568.052 393.52 567.586 395.89 567.586H395.891L424.205 567.587L424.204 586.218Z" fill="#2F2E41"/>
<path d="M399.034 549.158L370.372 484.883C367.979 479.466 367.714 473.346 369.631 467.742C371.547 462.139 375.504 457.463 380.713 454.646L442.882 421.308L471.251 418.895L497.42 416.516L497.609 416.836C497.85 417.243 503.476 426.962 499.673 437.618C496.788 445.701 489.284 452.015 477.37 456.384C449.56 466.581 417.434 475.297 404.913 478.57C404.359 478.711 403.842 478.968 403.395 479.324C402.948 479.68 402.582 480.126 402.32 480.633C402.057 481.135 401.901 481.686 401.861 482.25C401.822 482.815 401.899 483.382 402.09 483.916L428.718 543.742C428.996 544.501 429.096 545.313 429.01 546.117C428.925 546.92 428.656 547.693 428.224 548.377C427.792 549.06 427.21 549.635 426.521 550.057C425.832 550.479 425.055 550.738 424.25 550.812L404.354 552.261C404.185 552.277 404.017 552.285 403.849 552.285C402.83 552.285 401.833 551.989 400.979 551.434C400.124 550.879 399.448 550.088 399.034 549.158Z" fill="#2F2E41"/>
<path d="M427.573 572.282L413.197 572.28L406.356 534.991L427.575 534.992L427.573 572.282Z" fill="#FFB8B8"/>
<path d="M431.24 586.218L384.882 586.216V585.63C384.882 583.26 385.349 580.914 386.256 578.724C387.163 576.535 388.492 574.546 390.167 572.871C391.843 571.195 393.832 569.866 396.021 568.959C398.21 568.052 400.557 567.586 402.926 567.586H402.927L431.241 567.587L431.24 586.218Z" fill="#2F2E41"/>
<path d="M407.242 552.676L378.58 488.401C376.187 482.984 375.923 476.864 377.839 471.261C379.756 465.657 383.713 460.981 388.922 458.164L451.091 424.826L479.46 422.413L505.628 420.034L505.817 420.354C506.058 420.761 511.685 430.48 507.882 441.136C504.997 449.219 497.493 455.533 485.578 459.902C457.768 470.099 425.642 478.815 413.121 482.088C412.568 482.229 412.051 482.486 411.604 482.842C411.157 483.198 410.79 483.644 410.528 484.152C410.265 484.653 410.109 485.204 410.07 485.769C410.03 486.333 410.108 486.9 410.298 487.434L436.926 547.26C437.204 548.019 437.304 548.831 437.219 549.635C437.133 550.438 436.864 551.212 436.433 551.895C436.001 552.578 435.418 553.153 434.729 553.575C434.04 553.998 433.263 554.256 432.459 554.331L412.562 555.779C412.393 555.795 412.225 555.803 412.058 555.803C411.039 555.803 410.042 555.508 409.187 554.952C408.332 554.397 407.657 553.607 407.242 552.676Z" fill="#2F2E41"/>
<path d="M392.957 356.326C380.912 340.305 371.391 322.535 364.723 303.633C364.337 302.503 364.365 301.271 364.801 300.159C365.237 299.047 366.054 298.126 367.106 297.559L408.321 275.475C408.988 275.115 409.728 274.912 410.485 274.881C411.242 274.85 411.996 274.993 412.69 275.298C413.396 275.605 414.024 276.069 414.524 276.655C415.024 277.241 415.384 277.934 415.576 278.68C420.373 296.894 429.391 313.723 441.898 327.806C442.413 328.379 442.79 329.062 443.001 329.803C443.212 330.544 443.252 331.324 443.116 332.082C442.985 332.829 442.686 333.536 442.241 334.149C441.796 334.762 441.217 335.266 440.548 335.622L399.333 357.706C398.279 358.268 397.06 358.438 395.892 358.185C394.724 357.933 393.684 357.274 392.957 356.326Z" fill="#CCCCCC"/>
<path d="M395.769 354.212C395.991 354.489 396.302 354.68 396.649 354.751C396.997 354.823 397.358 354.771 397.671 354.605L438.886 332.52C439.087 332.416 439.26 332.267 439.393 332.084C439.525 331.902 439.614 331.691 439.652 331.468C439.695 331.234 439.683 330.992 439.617 330.762C439.55 330.533 439.432 330.322 439.271 330.146C426.394 315.648 417.111 298.323 412.173 279.572C412.116 279.34 412.006 279.125 411.852 278.943C411.697 278.761 411.503 278.617 411.284 278.522C411.078 278.43 410.853 278.387 410.627 278.396C410.401 278.405 410.18 278.467 409.982 278.576L368.768 300.66C368.456 300.829 368.212 301.101 368.079 301.431C367.947 301.76 367.933 302.125 368.041 302.463C374.59 321.026 383.941 338.478 395.769 354.212Z" fill="white"/>
<path d="M529.879 350.435L497.601 362.701L489.72 340.81C488.674 337.903 488.688 334.72 489.762 331.823C490.835 328.926 492.898 326.502 495.586 324.979C498.305 323.438 501.485 322.92 504.552 323.519C507.62 324.118 510.372 325.794 512.312 328.244L529.879 350.435Z" fill="#2F7BEA"/>
<path d="M447.778 437.169C447.099 436.689 446.53 436.069 446.108 435.351C445.687 434.634 445.424 433.835 445.335 433.007C441.201 394.413 444.08 364.211 454.137 340.673C455.908 336.614 458.577 333.008 461.942 330.128C465.307 327.248 469.281 325.168 473.565 324.044L499.657 322.727L499.792 322.793C505.68 325.676 510.482 330.381 513.485 336.209C516.489 342.037 517.535 348.677 516.467 355.146C508.075 377.268 501.048 400.299 506.407 418.879C506.632 419.656 506.697 420.47 506.6 421.273C506.502 422.076 506.244 422.85 505.84 423.551C505.448 424.228 504.921 424.817 504.293 425.283C503.665 425.749 502.947 426.081 502.186 426.259L452.489 438.081C451.684 438.272 450.847 438.29 450.035 438.133C449.223 437.976 448.454 437.647 447.778 437.169Z" fill="#2F7BEA"/>
<path d="M490.949 312.982C506.856 312.982 519.752 300.086 519.752 284.178C519.752 268.271 506.856 255.375 490.949 255.375C475.042 255.375 462.146 268.271 462.146 284.178C462.146 300.086 475.042 312.982 490.949 312.982Z" fill="#FFB8B8"/>
<path d="M411.026 306.991L388.579 316.9C387.725 317.276 386.757 317.298 385.888 316.961C385.018 316.624 384.317 315.956 383.94 315.103L383.385 313.845C383.009 312.991 382.987 312.023 383.324 311.153C383.661 310.284 384.329 309.583 385.182 309.206L407.63 299.297C408.483 298.921 409.451 298.899 410.321 299.236C411.191 299.573 411.891 300.241 412.269 301.094L412.824 302.352C413.2 303.206 413.222 304.174 412.884 305.044C412.547 305.913 411.879 306.614 411.026 306.991Z" fill="#CCCCCC"/>
<path d="M419.235 322.237L396.788 332.146C395.934 332.522 394.966 332.543 394.097 332.206C393.227 331.869 392.526 331.201 392.149 330.348L391.594 329.09C391.218 328.237 391.196 327.269 391.533 326.399C391.87 325.529 392.539 324.829 393.391 324.451L415.839 314.542C416.692 314.166 417.66 314.144 418.53 314.481C419.4 314.819 420.1 315.487 420.478 316.34L421.033 317.597C421.409 318.451 421.431 319.419 421.094 320.289C420.757 321.159 420.088 321.859 419.235 322.237Z" fill="#CCCCCC"/>
<path d="M436.547 381.785L386.502 342.304C386.104 342.444 385.698 342.563 385.287 342.662C383.521 343.075 381.687 343.112 379.906 342.77C378.124 342.429 376.435 341.716 374.947 340.678C373.449 339.64 372.19 338.294 371.254 336.73C370.318 335.166 369.727 333.42 369.521 331.609C369.185 328.714 369.838 325.791 371.373 323.314C372.907 320.836 375.234 318.95 377.975 317.961C379.686 317.347 381.507 317.102 383.32 317.241C385.132 317.38 386.895 317.901 388.492 318.768C390.089 319.636 391.485 320.832 392.588 322.276C393.691 323.721 394.477 325.383 394.893 327.152C395.022 327.713 395.111 328.282 395.161 328.855L444.979 357.595L457.377 350.458L471.11 368.438L451.861 382.158C449.608 383.751 446.901 384.575 444.142 384.508C441.383 384.44 438.72 383.485 436.547 381.785Z" fill="#FFB8B8"/>
<path d="M477.217 374.037L448.663 354.62L462.082 335.614C463.864 333.09 466.48 331.278 469.469 330.496C472.458 329.715 475.627 330.016 478.416 331.345C481.237 332.69 483.484 334.999 484.752 337.856C486.02 340.712 486.224 343.928 485.328 346.922L477.217 374.037Z" fill="#2F7BEA"/>
<path d="M480.389 279.888C472.986 284.955 463.266 290.164 455.705 284.768C450.741 281.225 449.176 274.664 451.19 268.907C454.81 258.553 464.757 253.995 474.269 250.501C486.635 245.959 500.099 242.346 512.864 245.599C525.629 248.852 536.911 261.211 534.607 274.182C532.753 284.612 522.915 293.291 524.311 303.792C525.717 314.361 537.603 319.924 548.096 321.813C558.589 323.702 570.33 324.309 577.871 331.846C587.491 341.461 585.089 358.647 576.037 368.798C566.985 378.95 553.326 383.551 540.089 386.679C522.552 390.824 503.584 393.002 486.928 386.124C470.272 379.245 457.311 360.729 462.136 343.366C464.174 336.032 468.975 329.834 473.615 323.8C478.255 317.766 482.953 311.456 484.723 304.053C486.198 297.883 485.106 290.72 481.015 286.093C480.271 285.283 479.803 284.258 479.678 283.165C479.552 282.072 479.777 280.968 480.318 280.01L480.389 279.888Z" fill="#2F2E41"/>
</svg>
