<svg width="600" height="518" viewBox="0 0 600 518" fill="none" xmlns="http://www.w3.org/2000/svg">
<path d="M327.503 144.258C358.015 144.258 382.75 119.513 382.75 88.9899C382.75 58.4664 358.015 33.7223 327.503 33.7223C296.991 33.7223 272.256 58.4664 272.256 88.9899C272.256 119.513 296.991 144.258 327.503 144.258Z" fill="#A0616A"/>
<path d="M286.268 116.624C286.268 116.624 296.677 195.12 280.663 203.93C264.65 212.741 375.944 213.542 375.944 213.542C375.944 213.542 351.123 145.459 362.333 124.633L286.268 116.624Z" fill="#A0616A"/>
<path d="M457.212 213.939L447.956 256.102L428.385 345.307L427.799 350.192L421.045 406.747L416.552 444.319L413.54 469.556C395.223 478.973 381.948 485.475 381.948 485.475C381.948 485.475 380.806 479.748 378.966 472.42C366.111 476.275 342.325 482.671 322.168 483.949C329.508 492.134 332.881 499.822 328.306 505.496C314.497 522.602 257.49 486.767 237.55 473.404C237.086 476.604 236.91 479.839 237.024 483.07L221.766 471.33L223.276 444.319L225.823 398.615L229.023 341.301C228.014 338.846 227.168 336.328 226.491 333.762C221.818 317.138 216.146 283.941 211.796 256.102C208.295 233.698 205.666 214.766 205.11 210.738C205.035 210.212 204.997 209.941 204.997 209.941L289.464 172.603C295.467 186.53 323.498 190.716 323.498 190.716C346.72 189.115 364.924 176.864 364.924 176.864L457.212 213.939Z" fill="#D0CDE1"/>
<path d="M388.357 469.459C388.357 469.459 384.78 470.684 378.965 472.42C366.111 476.275 342.325 482.671 322.168 483.949C304.813 485.061 290.148 482.386 287.466 471.059C286.317 466.189 287.947 462.183 291.5 458.892C302.109 449.053 329.816 445.529 351.791 444.319C357.997 443.98 363.737 443.822 368.515 443.762C376.629 443.657 381.948 443.822 381.948 443.822L382.076 444.319L388.357 469.459Z" fill="#A0616A"/>
<path d="M281.543 36.7118L271.213 32.5748C271.213 32.5748 292.812 8.787 322.862 10.8556L314.41 1.54722C314.41 1.54722 335.07 -6.72672 353.851 14.9925C363.724 26.4098 375.148 39.8303 382.269 54.9483H393.331L388.714 65.1184L404.874 75.2885L388.288 73.4617C389.276 79.031 389.428 84.7167 388.738 90.3308C388.026 95.9466 385.161 101.066 380.748 104.609C380.748 104.609 367.937 78.0818 367.937 73.9448V84.2874C367.937 84.2874 357.608 74.9791 357.608 68.7737L351.973 76.0134L349.156 64.6366L314.41 76.0134L320.045 66.7052L298.446 69.8079L306.898 58.4311C306.898 58.4311 282.482 71.8764 281.543 83.2532C280.604 94.6299 273.457 105.41 273.457 105.41C273.457 105.41 254.31 52.2256 281.543 36.7118Z" fill="#595782"/>
<path d="M517.263 407.777C511.636 413.88 497.692 423.072 480.788 433.022C474.499 436.72 467.805 440.531 460.976 444.319C444.681 453.36 427.619 462.319 413.54 469.556C395.223 478.973 381.948 485.475 381.948 485.475C381.948 485.475 380.806 479.748 378.965 472.42C376.501 462.612 372.79 449.933 368.921 444.319C368.786 444.123 368.65 443.943 368.515 443.762C367.388 442.282 366.254 441.417 365.134 441.417L421.045 406.747L445.207 391.761L427.799 350.192L405.967 298.048L419.144 256.102L432.39 213.939H457.212C457.212 213.939 465.431 231.887 475.942 256.914C477.512 260.657 479.135 264.558 480.788 268.586C502.41 321.196 529.366 394.662 517.263 407.777Z" fill="#D0CDE1"/>
<path d="M328.306 505.496C314.497 522.602 257.49 486.767 237.55 473.404C233.208 470.496 230.623 468.654 230.623 468.654L248.865 444.319L254.642 436.615C254.642 436.615 259.811 439.358 267.452 443.822C267.73 443.988 268.008 444.153 268.293 444.319C274.882 448.189 283.154 453.247 291.5 458.891C303.018 466.685 314.663 475.576 322.168 483.949C329.508 492.133 332.881 499.822 328.306 505.496Z" fill="#A0616A"/>
<path d="M267.452 443.823C265.413 443.815 263.377 443.981 261.366 444.319C244.094 447.287 239 462.927 237.55 473.404C237.086 476.604 236.91 479.839 237.024 483.07L221.766 471.33L216.206 467.054C202.826 462.386 190.903 454.096 180.565 444.319C171.597 435.686 163.552 426.142 156.561 415.841C149.598 405.689 143.391 395.038 137.989 383.975C136.482 380.888 135.672 377.507 135.616 374.071C135.561 370.636 136.26 367.23 137.666 364.096L156.561 321.97L184.179 260.402C184.382 258.936 184.604 257.503 184.847 256.103C190.324 224.687 204.997 210.738 204.997 210.738H216.206L223.704 256.103L233.02 312.463L226.491 333.762L211.405 382.953L225.823 398.615L267.452 443.823Z" fill="#D0CDE1"/>
<path d="M280.138 312.508L289.721 323.692C293.281 323.013 296.999 322.215 300.828 321.319L298.076 312.508L304.805 320.362C345.373 310.381 395.656 290.975 395.656 290.975C395.656 290.975 341.37 294.957 300.837 286.098C282.904 282.178 264.452 291.072 257.093 307.895C252.815 317.674 253.487 326.146 268.658 326.146C273.784 326.058 278.896 325.577 283.949 324.707L280.138 312.508Z" fill="#2F7BEA"/>
<path d="M498.593 496.327V500.889C498.596 502.141 498.364 503.383 497.91 504.549C497.708 505.069 497.464 505.572 497.181 506.053C496.285 507.556 495.015 508.801 493.494 509.665C491.973 510.53 490.253 510.984 488.504 510.983H153.015C151.266 510.984 149.546 510.53 148.025 509.665C146.504 508.801 145.233 507.556 144.338 506.053C144.055 505.572 143.811 505.069 143.609 504.549C143.155 503.383 142.923 502.141 142.925 500.889V496.327C142.925 495.002 143.186 493.689 143.693 492.464C144.2 491.239 144.943 490.127 145.88 489.189C146.817 488.252 147.929 487.508 149.154 487.001C150.378 486.494 151.69 486.233 153.015 486.234H172.353V484.107C172.353 484.051 172.364 483.997 172.385 483.946C172.406 483.894 172.437 483.848 172.476 483.809C172.516 483.77 172.562 483.739 172.613 483.718C172.664 483.697 172.719 483.686 172.774 483.686H182.864C182.919 483.686 182.974 483.697 183.025 483.718C183.076 483.739 183.123 483.77 183.162 483.809C183.201 483.848 183.232 483.894 183.253 483.946C183.274 483.997 183.285 484.051 183.285 484.107V486.234H189.588V484.107C189.588 484.051 189.599 483.997 189.62 483.946C189.641 483.894 189.672 483.848 189.711 483.809C189.75 483.77 189.797 483.739 189.848 483.718C189.899 483.697 189.953 483.686 190.009 483.686H200.099C200.154 483.686 200.209 483.697 200.26 483.718C200.311 483.739 200.357 483.77 200.396 483.809C200.435 483.848 200.466 483.894 200.487 483.946C200.509 483.997 200.519 484.051 200.519 484.107V486.234H206.83V484.107C206.83 484.051 206.841 483.997 206.862 483.946C206.883 483.894 206.914 483.848 206.953 483.809C206.992 483.77 207.039 483.739 207.09 483.718C207.141 483.697 207.196 483.686 207.251 483.686H217.341C217.396 483.686 217.451 483.697 217.502 483.718C217.553 483.739 217.599 483.77 217.638 483.809C217.677 483.848 217.708 483.894 217.73 483.946C217.751 483.997 217.761 484.051 217.761 484.107V486.234H224.065V484.107C224.065 484.051 224.075 483.997 224.097 483.946C224.118 483.894 224.149 483.848 224.188 483.809C224.227 483.77 224.273 483.739 224.324 483.718C224.375 483.697 224.43 483.686 224.485 483.686H234.575C234.63 483.686 234.685 483.697 234.736 483.718C234.787 483.739 234.834 483.77 234.873 483.809C234.912 483.848 234.943 483.894 234.964 483.946C234.985 483.997 234.996 484.051 234.996 484.107V486.234H241.299V484.107C241.299 484.051 241.31 483.997 241.331 483.946C241.352 483.894 241.383 483.848 241.422 483.809C241.461 483.77 241.508 483.739 241.559 483.718C241.61 483.697 241.665 483.686 241.72 483.686H251.81C251.865 483.686 251.92 483.697 251.971 483.718C252.022 483.739 252.068 483.77 252.107 483.809C252.147 483.848 252.178 483.894 252.199 483.946C252.22 483.997 252.231 484.051 252.23 484.107V486.234H258.541V484.107C258.541 484.051 258.552 483.997 258.573 483.946C258.594 483.894 258.625 483.848 258.664 483.809C258.703 483.77 258.75 483.739 258.801 483.718C258.852 483.697 258.907 483.686 258.962 483.686H269.052C269.107 483.686 269.162 483.697 269.213 483.718C269.264 483.739 269.31 483.77 269.35 483.809C269.389 483.848 269.42 483.894 269.441 483.946C269.462 483.997 269.473 484.051 269.473 484.107V486.234H275.776V484.107C275.776 484.051 275.787 483.997 275.808 483.946C275.829 483.894 275.86 483.848 275.899 483.809C275.938 483.77 275.984 483.739 276.036 483.718C276.087 483.697 276.141 483.686 276.197 483.686H355.232C355.288 483.686 355.342 483.697 355.393 483.718C355.444 483.739 355.491 483.77 355.53 483.809C355.569 483.848 355.6 483.894 355.621 483.946C355.642 483.997 355.653 484.051 355.653 484.107V486.234H361.964V484.107C361.964 484.051 361.975 483.997 361.996 483.946C362.017 483.894 362.048 483.848 362.087 483.809C362.126 483.77 362.172 483.739 362.223 483.718C362.275 483.697 362.329 483.686 362.385 483.686H372.474C372.586 483.687 372.692 483.732 372.771 483.81C372.849 483.889 372.894 483.995 372.895 484.107V486.234H379.198V484.107C379.198 484.051 379.209 483.997 379.23 483.946C379.251 483.894 379.282 483.848 379.321 483.809C379.361 483.77 379.407 483.739 379.458 483.718C379.509 483.697 379.564 483.686 379.619 483.686H389.709C389.764 483.686 389.819 483.697 389.87 483.718C389.921 483.739 389.968 483.77 390.007 483.809C390.046 483.848 390.077 483.894 390.098 483.946C390.119 483.997 390.13 484.051 390.13 484.107V486.234H396.433V484.107C396.433 484.051 396.444 483.997 396.465 483.946C396.486 483.894 396.517 483.848 396.556 483.809C396.595 483.77 396.642 483.739 396.693 483.718C396.744 483.697 396.798 483.686 396.854 483.686H406.944C406.999 483.686 407.054 483.697 407.105 483.718C407.156 483.739 407.202 483.77 407.241 483.809C407.28 483.848 407.311 483.894 407.332 483.946C407.354 483.997 407.364 484.051 407.364 484.107V486.234H413.675V484.107C413.675 484.051 413.686 483.997 413.707 483.946C413.728 483.894 413.759 483.848 413.798 483.809C413.837 483.77 413.884 483.739 413.935 483.718C413.986 483.697 414.041 483.686 414.096 483.686H424.186C424.296 483.687 424.402 483.732 424.479 483.811C424.556 483.89 424.599 483.996 424.599 484.107V486.234H430.91V484.107C430.91 484.051 430.92 483.997 430.942 483.946C430.963 483.894 430.994 483.848 431.033 483.809C431.072 483.77 431.118 483.739 431.169 483.718C431.22 483.697 431.275 483.686 431.33 483.686H441.42C441.476 483.686 441.53 483.697 441.581 483.718C441.632 483.739 441.679 483.77 441.718 483.809C441.757 483.848 441.788 483.894 441.809 483.946C441.83 483.997 441.841 484.051 441.841 484.107V486.234H448.144V484.107C448.144 484.051 448.155 483.997 448.176 483.946C448.197 483.894 448.228 483.848 448.267 483.809C448.306 483.77 448.353 483.739 448.404 483.718C448.455 483.697 448.51 483.686 448.565 483.686H458.655C458.71 483.686 458.765 483.697 458.816 483.718C458.867 483.739 458.913 483.77 458.953 483.809C458.992 483.848 459.023 483.894 459.044 483.946C459.065 483.997 459.076 484.051 459.076 484.107V486.234H488.504C489.829 486.233 491.141 486.494 492.365 487.001C493.589 487.508 494.702 488.252 495.639 489.189C496.576 490.127 497.319 491.239 497.826 492.464C498.333 493.689 498.594 495.002 498.593 496.327Z" fill="#3F3D56"/>
<path d="M596.148 504.549H45.4531V506.053H596.148V504.549Z" fill="#3F3D56"/>
<path d="M471.58 304.203H346.533V301.625H289.832V304.203H164.27C162.027 304.203 159.875 305.095 158.289 306.682C156.703 308.269 155.812 310.421 155.812 312.665V483.957C155.812 486.201 156.703 488.353 158.289 489.94C159.875 491.527 162.027 492.419 164.27 492.419H471.58C473.823 492.419 475.975 491.527 477.561 489.94C479.147 488.353 480.039 486.201 480.039 483.957V312.665C480.039 311.554 479.82 310.454 479.395 309.427C478.97 308.4 478.347 307.468 477.561 306.682C476.776 305.896 475.843 305.273 474.817 304.848C473.791 304.422 472.691 304.203 471.58 304.203Z" fill="#3F3D56"/>
<path d="M318.171 382.795C328.544 382.795 336.953 374.383 336.953 364.006C336.953 353.629 328.544 345.216 318.171 345.216C307.798 345.216 299.389 353.629 299.389 364.006C299.389 374.383 307.798 382.795 318.171 382.795Z" stroke="#D0CDE1" stroke-width="2" stroke-miterlimit="10"/>
<path d="M312.161 389.559C322.534 389.559 330.943 381.147 330.943 370.77C330.943 360.393 322.534 351.98 312.161 351.98C301.788 351.98 293.379 360.393 293.379 370.77C293.379 381.147 301.788 389.559 312.161 389.559Z" fill="#D0CDE1"/>
<path d="M81.4743 496.956H60.4382V518H81.4743V496.956Z" fill="#D0CDE1"/>
<path d="M68.7054 480.422V505.975H94.2493V480.422H68.7054ZM93.1374 504.863H69.8098V481.534H93.1374V504.863Z" fill="#3F3D56"/>
<path d="M568.31 496.956H547.274V518H568.31V496.956Z" fill="#D0CDE1"/>
<path d="M555.541 480.422V505.975H581.085V480.422H555.541ZM579.973 504.863H556.645V481.534H579.973V504.863Z" fill="#3F3D56"/>
<path d="M71.057 172.947C103.977 172.947 130.665 146.249 130.665 113.317C130.665 80.3838 103.977 53.6866 71.057 53.6866C38.1366 53.6866 11.4493 80.3838 11.4493 113.317C11.4493 146.249 38.1366 172.947 71.057 172.947Z" fill="#2F7BEA"/>
<path d="M91.8293 42.4563C86.4322 41.7696 80.9698 41.7696 75.5727 42.4563C63.5487 44.0356 52.23 49.0324 42.9596 56.8538C33.6892 64.6752 26.8563 74.9928 23.2716 86.5824C21.6413 91.8642 20.718 97.3388 20.526 102.863C20.4989 103.631 20.4808 104.408 20.4808 105.185C20.4976 121.953 27.1636 138.03 39.0161 149.887C50.8686 161.744 66.9391 168.412 83.701 168.429C85.0467 168.429 86.3924 168.384 87.72 168.303C90.8365 168.107 93.9339 167.678 96.9863 167.02C111.563 163.884 124.562 155.696 133.69 143.902C142.817 132.108 147.484 117.467 146.867 102.565C146.25 87.6621 140.389 73.4571 130.318 62.4586C120.247 51.46 106.615 44.3755 91.8293 42.4563H91.8293ZM103.489 163.352H103.48C98.3884 165.09 93.0888 166.144 87.7199 166.487C86.3923 166.577 85.0466 166.622 83.701 166.622C67.4191 166.602 51.8098 160.123 40.2968 148.606C28.7838 137.088 22.307 121.473 22.2871 105.185C22.2871 104.408 22.3051 103.631 22.3322 102.863C22.9531 86.9897 29.6878 71.9718 41.1265 60.9531C52.5653 49.9345 67.8213 43.7693 83.701 43.7482C98.2507 43.749 112.328 48.9172 123.424 58.3319C134.52 67.7466 141.915 80.7963 144.291 95.1562C146.666 109.516 143.869 124.253 136.397 136.742C128.924 149.232 117.262 158.661 103.489 163.352H103.489Z" fill="#3F3D56"/>
<path d="M84.6041 47.3622H82.7979V60.011H84.6041V47.3622Z" fill="#3F3D56"/>
<path d="M43.4679 63.6593L42.1907 64.937L51.1314 73.8811L52.4086 72.6033L43.4679 63.6593Z" fill="#3F3D56"/>
<path d="M25.8998 104.282V106.089H38.5438V104.282H25.8998Z" fill="#3F3D56"/>
<path d="M42.1908 145.433L43.468 146.711L52.4087 137.767L51.1314 136.489L42.1908 145.433Z" fill="#3F3D56"/>
<path d="M114.993 72.6033L116.271 73.8811L125.211 64.937L123.934 63.6593L114.993 72.6033Z" fill="#3F3D56"/>
<path d="M128.858 104.282V106.089H141.502V104.282H128.858Z" fill="#3F3D56"/>
<path d="M116.271 136.489L114.993 137.767L123.934 146.711L125.211 145.433L116.271 136.489Z" fill="#3F3D56"/>
<path d="M84.6041 150.359H82.7979V163.008H84.6041V150.359Z" fill="#3F3D56"/>
<path d="M86.4105 101.571C85.6288 100.985 84.6781 100.668 83.7011 100.668C82.724 100.668 81.7733 100.985 80.9916 101.571C80.4565 101.978 80.0159 102.496 79.7002 103.089C79.3001 103.853 79.127 104.716 79.2014 105.575C79.2758 106.435 79.5946 107.255 80.1201 107.939C80.6456 108.623 81.3558 109.142 82.1668 109.435C82.9778 109.728 83.8557 109.782 84.6967 109.592C85.5377 109.402 86.3067 108.975 86.9128 108.361C87.519 107.748 87.9368 106.973 88.117 106.13C88.2973 105.286 88.2324 104.409 87.93 103.601C87.6276 102.793 87.1003 102.089 86.4105 101.571H86.4105ZM83.7011 107.896C82.9831 107.894 82.2952 107.607 81.7875 107.099C81.2799 106.592 80.9937 105.903 80.9916 105.185C80.9951 104.637 81.1618 104.102 81.4703 103.649C81.735 103.266 82.094 102.957 82.5127 102.753C82.9315 102.549 83.3958 102.457 83.8607 102.485C84.3256 102.513 84.7754 102.661 85.1666 102.913C85.5578 103.166 85.8772 103.516 86.0938 103.928C86.3105 104.341 86.4171 104.802 86.4034 105.268C86.3896 105.733 86.256 106.188 86.0154 106.587C85.7748 106.986 85.4354 107.316 85.03 107.545C84.6245 107.774 84.1668 107.895 83.7011 107.896V107.896Z" fill="#3F3D56"/>
<path d="M91.8294 26.582H75.5728V42.8448H91.8294V26.582Z" fill="#3F3D56"/>
<path d="M83.701 29.2925C95.672 29.2925 105.376 25.8542 105.376 21.6129C105.376 17.3715 95.672 13.9332 83.701 13.9332C71.73 13.9332 62.0255 17.3715 62.0255 21.6129C62.0255 25.8542 71.73 29.2925 83.701 29.2925Z" fill="#3F3D56"/>
<path d="M86.4104 70.8528H80.9916V101.571H86.4104V70.8528Z" fill="#3F3D56"/>
<path d="M169.791 165.676H0V167.483H169.791V165.676Z" fill="#3F3D56"/>
<path d="M113.139 450.758C113.84 474.771 99.8152 483.571 82.214 484.085C81.8051 484.097 81.3981 484.104 80.9929 484.107C80.1767 484.113 79.3684 484.1 78.568 484.066C62.6494 483.405 50.0489 474.952 49.397 452.62C48.7223 429.51 77.3967 399.482 79.5481 397.261L79.5519 397.259C79.6336 397.174 79.6755 397.132 79.6755 397.132C79.6755 397.132 112.438 426.747 113.139 450.758Z" fill="#D0CDE1"/>
<path d="M80.9467 480.446L92.1277 463.812L80.9696 482.235L80.9929 484.107C80.1766 484.113 79.3683 484.1 78.5679 484.066L79.1225 460.007L79.1073 459.821L79.1278 459.786L79.1808 457.512L66.9364 439.728L79.1664 455.81L79.2098 456.291L79.6286 438.113L69.0528 419.675L79.6588 434.92L79.5481 397.261L79.5483 397.135L79.5519 397.259L80.254 426.939L89.8926 414.883L80.2855 429.496L80.4959 445.756L89.3654 429.887L80.5285 448.146L80.6456 457.187L93.5443 435.082L80.6848 460.341L80.9467 480.446Z" fill="#3F3D56"/>
<path d="M599.975 450.758C600.676 474.771 586.651 483.571 569.049 484.085C568.64 484.097 568.233 484.104 567.828 484.107C567.012 484.113 566.204 484.1 565.403 484.066C549.485 483.405 536.884 474.952 536.232 452.62C535.558 429.51 564.232 399.482 566.383 397.261L566.387 397.259C566.469 397.174 566.511 397.132 566.511 397.132C566.511 397.132 599.274 426.747 599.975 450.758Z" fill="#D0CDE1"/>
<path d="M567.782 480.446L578.963 463.812L567.805 482.235L567.828 484.107C567.012 484.113 566.204 484.1 565.403 484.066L565.958 460.007L565.943 459.821L565.963 459.786L566.016 457.512L553.772 439.728L566.002 455.81L566.045 456.291L566.464 438.113L555.888 419.675L566.494 434.92L566.383 397.261L566.384 397.135L566.387 397.259L567.089 426.939L576.728 414.883L567.121 429.496L567.331 445.756L576.201 429.887L567.364 448.146L567.481 457.187L580.38 435.082L567.52 460.341L567.782 480.446Z" fill="#3F3D56"/>
</svg>
